<svg width="158" height="51" viewBox="0 0 158 51" fill="none" xmlns="http://www.w3.org/2000/svg">
<g opacity="0.6">
<mask id="path-1-outside-1_132_326" maskUnits="userSpaceOnUse" x="-2" y="-2" width="162" height="55" fill="black">
<rect fill="white" x="-2" y="-2" width="162" height="55"/>
<path d="M10.88 12.13C8.43 14.72 4.58 15.77 0.73 15.84V8.49C5.91 7.93 9.48 5.55 10.88 0.999997H19.84V50H10.88V12.13ZM48.942 0.44C59.162 0.44 67.492 7.37 67.492 25.57C67.492 39.64 62.312 50.77 48.452 50.77C37.252 50.77 32.422 43.42 32.492 37.05H40.402C41.032 41.67 44.602 43.63 48.662 43.63C57.622 43.63 59.092 34.18 59.092 28.37C56.712 31.1 52.932 33.69 47.262 33.69C39.632 33.69 31.232 29.07 31.232 17.31C31.232 4.92 40.892 0.44 48.942 0.44ZM49.012 7.72C44.392 7.72 39.772 10.8 39.772 17.45C39.772 24.03 44.392 26.9 49.012 26.9C53.562 26.9 58.182 24.03 58.182 17.45C58.182 10.73 53.492 7.72 49.012 7.72ZM94.338 50.7C84.328 50.7 76.628 45.38 76.628 36C76.628 29.91 79.708 25.71 85.098 23.33C81.248 21.23 79.428 17.24 79.428 13.04C79.428 5.76 84.958 0.369996 94.338 0.369996C103.648 0.369996 109.178 5.76 109.178 13.04C109.178 17.24 107.358 21.23 103.578 23.33C108.898 25.71 112.048 29.91 112.048 36C112.048 45.38 104.278 50.7 94.338 50.7ZM94.338 43.14C100.358 43.14 103.368 39.64 103.368 35.3C103.368 30.68 100.078 27.32 94.338 27.32C88.528 27.32 85.238 30.68 85.238 35.3C85.238 39.78 88.248 43.14 94.338 43.14ZM94.338 19.69C98.748 19.69 100.778 17.17 100.778 13.6C100.778 10.03 98.748 7.86 94.338 7.86C89.858 7.86 87.828 10.03 87.828 13.6C87.828 17.17 89.858 19.69 94.338 19.69ZM139.505 50.7C129.285 50.7 120.955 43.77 120.955 25.57C120.955 11.5 126.135 0.369996 139.995 0.369996C151.195 0.369996 156.025 7.72 155.955 14.09H148.045C147.415 9.47 143.845 7.51 139.785 7.51C130.825 7.51 129.355 16.96 129.355 22.77C131.735 20.04 135.515 17.45 141.185 17.45C148.815 17.45 157.215 22.07 157.215 33.83C157.215 46.22 147.555 50.7 139.505 50.7ZM139.435 43.42C144.055 43.42 148.675 40.34 148.675 33.69C148.675 27.11 144.055 24.24 139.435 24.24C134.885 24.24 130.265 27.11 130.265 33.69C130.265 40.41 134.955 43.42 139.435 43.42Z"/>
</mask>
<path d="M10.88 12.13H12.88V7.10535L9.42706 10.7556L10.88 12.13ZM0.73 15.84H-1.27V17.8767L0.766357 17.8397L0.73 15.84ZM0.73 8.49L0.515038 6.50158L-1.27 6.69456V8.49H0.73ZM10.88 0.999997V-1H9.40285L8.96844 0.411825L10.88 0.999997ZM19.84 0.999997H21.84V-1H19.84V0.999997ZM19.84 50V52H21.84V50H19.84ZM10.88 50H8.88V52H10.88V50ZM9.42706 10.7556C7.5024 12.7902 4.28722 13.775 0.693643 13.8403L0.766357 17.8397C4.87278 17.765 9.3576 16.6498 12.3329 13.5044L9.42706 10.7556ZM2.73 15.84V8.49H-1.27V15.84H2.73ZM0.944963 10.4784C3.77789 10.1721 6.3224 9.35252 8.39046 7.86479C10.4829 6.35952 11.9719 4.25191 12.7916 1.58817L8.96844 0.411825C8.38806 2.29808 7.39212 3.65547 6.05455 4.61771C4.6926 5.59747 2.86211 6.24785 0.515038 6.50158L0.944963 10.4784ZM10.88 3H19.84V-1H10.88V3ZM17.84 0.999997V50H21.84V0.999997H17.84ZM19.84 48H10.88V52H19.84V48ZM12.88 50V12.13H8.88V50H12.88ZM32.492 37.05V35.05H30.5138L30.4921 37.028L32.492 37.05ZM40.402 37.05L42.3836 36.7798L42.1477 35.05H40.402V37.05ZM59.092 28.37H61.092V23.0324L57.5844 27.0557L59.092 28.37ZM48.942 2.44C53.5767 2.44 57.6057 3.99281 60.5169 7.46497C63.469 10.986 65.492 16.7433 65.492 25.57H69.492C69.492 16.1967 67.3499 9.389 63.5821 4.89503C59.7732 0.352192 54.5272 -1.56 48.942 -1.56V2.44ZM65.492 25.57C65.492 32.4129 64.2234 38.2598 61.5054 42.3368C58.87 46.29 54.7523 48.77 48.452 48.77V52.77C56.0116 52.77 61.414 49.685 64.8336 44.5557C68.1705 39.5502 69.492 32.7971 69.492 25.57H65.492ZM48.452 48.77C43.3127 48.77 39.8431 47.0971 37.6693 44.894C35.4694 42.6644 34.4623 39.759 34.4918 37.072L30.4921 37.028C30.4516 40.711 31.8245 44.6656 34.8221 47.7035C37.8458 50.7679 42.3912 52.77 48.452 52.77V48.77ZM32.492 39.05H40.402V35.05H32.492V39.05ZM38.4203 37.3202C38.8045 40.1378 40.1247 42.2861 42.0751 43.6941C43.9799 45.0692 46.3308 45.63 48.662 45.63V41.63C46.9331 41.63 45.469 41.2108 44.4163 40.4509C43.4093 39.7239 42.6294 38.5822 42.3836 36.7798L38.4203 37.3202ZM48.662 45.63C51.2745 45.63 53.4542 44.934 55.2172 43.7021C56.9625 42.4826 58.1856 40.8184 59.0389 39.0465C60.7209 35.5539 61.092 31.3806 61.092 28.37H57.092C57.092 31.1694 56.728 34.6261 55.435 37.311C54.8008 38.6278 53.9765 39.6893 52.9261 40.4232C51.8934 41.1448 50.5294 41.63 48.662 41.63V45.63ZM57.5844 27.0557C55.4994 29.4473 52.2363 31.69 47.262 31.69V35.69C53.6276 35.69 57.9245 32.7527 60.5995 29.6843L57.5844 27.0557ZM47.262 31.69C43.8216 31.69 40.3088 30.6449 37.6894 28.3933C35.1223 26.1866 33.232 22.6686 33.232 17.31H29.232C29.232 23.7114 31.5416 28.3834 35.082 31.4267C38.5701 34.4251 43.0723 35.69 47.262 35.69V31.69ZM33.232 17.31C33.232 11.7039 35.384 8.07902 38.2983 5.80571C41.2869 3.4745 45.2473 2.44 48.942 2.44V-1.56C44.5866 -1.56 39.692 -0.354499 35.8381 2.65178C31.9099 5.71598 29.232 10.5261 29.232 17.31H33.232ZM49.012 5.72C46.2731 5.72 43.4552 6.63239 41.302 8.6225C39.1164 10.6425 37.772 13.6293 37.772 17.45H41.772C41.772 14.6207 42.7375 12.7425 44.0169 11.56C45.3287 10.3476 47.1309 9.72 49.012 9.72V5.72ZM37.772 17.45C37.772 21.2459 39.1247 24.1764 41.3307 26.1373C43.4957 28.0617 46.3088 28.9 49.012 28.9V24.9C47.0951 24.9 45.2882 24.3033 43.9882 23.1477C42.7292 22.0286 41.772 20.2341 41.772 17.45H37.772ZM49.012 28.9C51.6866 28.9 54.4822 28.0579 56.6357 26.134C58.8296 24.174 60.182 21.2456 60.182 17.45H56.182C56.182 20.2344 55.2243 22.031 53.9707 23.151C52.6767 24.3071 50.8873 24.9 49.012 24.9V28.9ZM60.182 17.45C60.182 13.5902 58.817 10.6025 56.6304 8.59254C54.4791 6.61506 51.6814 5.72 49.012 5.72V9.72C50.8225 9.72 52.6098 10.3299 53.9235 11.5375C55.2019 12.7125 56.182 14.5898 56.182 17.45H60.182ZM85.098 23.33L85.9059 25.1596L89.6213 23.519L86.0558 21.5742L85.098 23.33ZM103.578 23.33L102.607 21.5817L99.1122 23.5231L102.761 25.1556L103.578 23.33ZM94.338 48.7C89.6645 48.7 85.7082 47.4562 82.967 45.2965C80.276 43.1763 78.628 40.0822 78.628 36H74.628C74.628 41.2978 76.8301 45.5537 80.4916 48.4385C84.1029 51.2838 89.0016 52.7 94.338 52.7V48.7ZM78.628 36C78.628 33.306 79.304 31.139 80.4921 29.4036C81.6861 27.6597 83.4811 26.2303 85.9059 25.1596L84.2902 21.5004C81.325 22.8097 78.885 24.6703 77.1915 27.1439C75.4921 29.626 74.628 32.604 74.628 36H78.628ZM86.0558 21.5742C82.9852 19.8994 81.428 16.6786 81.428 13.04H77.428C77.428 17.8014 79.5109 22.5606 84.1403 25.0858L86.0558 21.5742ZM81.428 13.04C81.428 9.93377 82.5933 7.32619 84.6898 5.47377C86.8044 3.60544 90.0256 2.37 94.338 2.37V-1.63C89.2705 -1.63 85.0367 -0.170447 82.0413 2.47622C79.0278 5.13881 77.428 8.86623 77.428 13.04H81.428ZM94.338 2.37C98.6119 2.37 101.815 3.60341 103.922 5.47152C106.012 7.32442 107.178 9.93334 107.178 13.04H111.178C111.178 8.86665 109.579 5.14058 106.576 2.47848C103.591 -0.168419 99.3742 -1.63 94.338 -1.63V2.37ZM107.178 13.04C107.178 16.6837 105.616 19.9099 102.607 21.5817L104.549 25.0783C109.1 22.5501 111.178 17.7963 111.178 13.04H107.178ZM102.761 25.1556C105.155 26.2265 106.955 27.6582 108.161 29.4083C109.359 31.1482 110.048 33.3153 110.048 36H114.048C114.048 32.5947 113.162 29.6168 111.455 27.1392C109.756 24.6718 107.321 22.8135 104.395 21.5044L102.761 25.1556ZM110.048 36C110.048 40.076 108.388 43.1713 105.685 45.2949C102.933 47.4574 98.974 48.7 94.338 48.7V52.7C99.6421 52.7 104.539 51.2826 108.156 48.4401C111.824 45.5587 114.048 41.304 114.048 36H110.048ZM94.338 45.14C97.7361 45.14 100.526 44.1457 102.482 42.3034C104.442 40.4571 105.368 37.9423 105.368 35.3H101.368C101.368 36.9977 100.789 38.4029 99.7393 39.3916C98.6853 40.3843 96.96 41.14 94.338 41.14V45.14ZM105.368 35.3C105.368 32.4965 104.357 29.9445 102.36 28.106C100.375 26.2787 97.596 25.32 94.338 25.32V29.32C96.8201 29.32 98.5563 30.0413 99.6511 31.049C100.734 32.0455 101.368 33.4835 101.368 35.3H105.368ZM94.338 25.32C91.0511 25.32 88.2551 26.2752 86.259 28.1022C84.2493 29.9415 83.238 32.4959 83.238 35.3H87.238C87.238 33.4841 87.8718 32.0485 88.9596 31.0528C90.061 30.0448 91.815 29.32 94.338 29.32V25.32ZM83.238 35.3C83.238 38.0001 84.1568 40.5283 86.1463 42.3683C88.1228 44.1962 90.9326 45.14 94.338 45.14V41.14C91.6535 41.14 89.9133 40.4038 88.8623 39.4317C87.8243 38.4717 87.238 37.0799 87.238 35.3H83.238ZM94.338 21.69C96.9229 21.69 99.1058 20.9434 100.638 19.3863C102.161 17.8379 102.778 15.7539 102.778 13.6H98.778C98.778 15.0161 98.3803 15.9771 97.786 16.5812C97.2003 17.1766 96.1632 17.69 94.338 17.69V21.69ZM102.778 13.6C102.778 11.4395 102.155 9.40328 100.577 7.92954C99.021 6.47657 96.8448 5.86 94.338 5.86V9.86C96.2413 9.86 97.2851 10.3284 97.8467 10.853C98.3862 11.3567 98.778 12.1905 98.778 13.6H102.778ZM94.338 5.86C91.8039 5.86 89.6107 6.4728 88.044 7.92395C86.4517 9.39881 85.828 11.439 85.828 13.6H89.828C89.828 12.191 90.2194 11.3612 90.7621 10.8585C91.3304 10.3322 92.3922 9.86 94.338 9.86V5.86ZM85.828 13.6C85.828 15.7543 86.4457 17.8422 87.9831 19.3922C89.5265 20.9483 91.7267 21.69 94.338 21.69V17.69C92.4694 17.69 91.4146 17.1717 90.823 16.5753C90.2254 15.9728 89.828 15.0157 89.828 13.6H85.828ZM155.955 14.09V16.09H157.933L157.955 14.112L155.955 14.09ZM148.045 14.09L146.063 14.3602L146.299 16.09H148.045V14.09ZM129.355 22.77H127.355V28.1076L130.863 24.0843L129.355 22.77ZM139.505 48.7C134.87 48.7 130.841 47.1472 127.93 43.675C124.978 40.154 122.955 34.3967 122.955 25.57H118.955C118.955 34.9433 121.097 41.751 124.865 46.245C128.674 50.7878 133.92 52.7 139.505 52.7V48.7ZM122.955 25.57C122.955 18.7271 124.224 12.8802 126.942 8.80315C129.577 4.85004 133.695 2.37 139.995 2.37V-1.63C132.435 -1.63 127.033 1.45495 123.613 6.58435C120.276 11.5898 118.955 18.3429 118.955 25.57H122.955ZM139.995 2.37C145.134 2.37 148.604 4.04293 150.778 6.24597C152.978 8.47556 153.985 11.381 153.955 14.068L157.955 14.112C157.995 10.429 156.622 6.47443 153.625 3.43652C150.601 0.372065 146.056 -1.63 139.995 -1.63V2.37ZM155.955 12.09H148.045V16.09H155.955V12.09ZM150.027 13.8198C149.642 11.0022 148.322 8.85388 146.372 7.44589C144.467 6.07082 142.116 5.51 139.785 5.51V9.51C141.514 9.51 142.978 9.92917 144.031 10.6891C145.038 11.4161 145.818 12.5578 146.063 14.3602L150.027 13.8198ZM139.785 5.51C137.172 5.51 134.993 6.20604 133.23 7.43791C131.485 8.65741 130.261 10.3216 129.408 12.0935C127.726 15.5861 127.355 19.7594 127.355 22.77H131.355C131.355 19.9705 131.719 16.5139 133.012 13.829C133.646 12.5122 134.47 11.4507 135.521 10.7168C136.554 9.9952 137.918 9.51 139.785 9.51V5.51ZM130.863 24.0843C132.948 21.6927 136.211 19.45 141.185 19.45V15.45C134.819 15.45 130.522 18.3873 127.847 21.4557L130.863 24.0843ZM141.185 19.45C144.625 19.45 148.138 20.4951 150.758 22.7467C153.325 24.9534 155.215 28.4714 155.215 33.83H159.215C159.215 27.4286 156.905 22.7566 153.365 19.7133C149.877 16.7149 145.375 15.45 141.185 15.45V19.45ZM155.215 33.83C155.215 39.4361 153.063 43.061 150.149 45.3343C147.16 47.6655 143.2 48.7 139.505 48.7V52.7C143.86 52.7 148.755 51.4945 152.609 48.4882C156.537 45.424 159.215 40.6139 159.215 33.83H155.215ZM139.435 45.42C142.174 45.42 144.992 44.5076 147.145 42.5175C149.331 40.4975 150.675 37.5107 150.675 33.69H146.675C146.675 36.5193 145.709 38.3975 144.43 39.58C143.118 40.7924 141.316 41.42 139.435 41.42V45.42ZM150.675 33.69C150.675 29.8941 149.322 26.9636 147.116 25.0027C144.951 23.0783 142.138 22.24 139.435 22.24V26.24C141.352 26.24 143.159 26.8367 144.459 27.9923C145.718 29.1114 146.675 30.9059 146.675 33.69H150.675ZM139.435 22.24C136.76 22.24 133.965 23.0821 131.811 25.006C129.617 26.966 128.265 29.8944 128.265 33.69H132.265C132.265 30.9056 133.223 29.109 134.476 27.989C135.77 26.8329 137.56 26.24 139.435 26.24V22.24ZM128.265 33.69C128.265 37.5498 129.63 40.5375 131.817 42.5475C133.968 44.5249 136.766 45.42 139.435 45.42V41.42C137.624 41.42 135.837 40.8101 134.523 39.6025C133.245 38.4275 132.265 36.5502 132.265 33.69H128.265Z" fill="#FEBD37" mask="url(#path-1-outside-1_132_326)"/>
</g>
</svg>
