<svg width="375" height="132" viewBox="0 0 375 132" fill="none" xmlns="http://www.w3.org/2000/svg">
<path fill-rule="evenodd" clip-rule="evenodd" d="M0 131.709C1.35052 131.791 2.71204 131.833 4.08333 131.833C40.4881 131.833 70 102.321 70 65.9167C70 29.5119 40.4881 0 4.08333 0C2.71204 0 1.35052 0.0418737 0 0.124412V131.709Z" fill="#FEBD37"/>
<path d="M0 66L375 66" stroke="#B0B0B0" stroke-width="0.5"/>
<path d="M75.1007 85.4688C72.5896 89.7422 66.4104 89.7422 63.8993 85.4688V85.4688C62.5642 83.1967 59.9886 81.9564 57.3797 82.3292V82.3292C52.473 83.0303 48.6204 78.1992 50.3958 73.5716V73.5716C51.3397 71.1111 50.7036 68.3241 48.7855 66.5168V66.5168C45.1781 63.1177 46.5531 57.0935 51.2781 55.5962V55.5962C53.7904 54.8002 55.5727 52.5652 55.7898 49.9387V49.9387C56.1981 44.9991 61.7654 42.318 65.8819 45.0786V45.0786C68.0707 46.5465 70.9293 46.5465 73.1181 45.0786V45.0786C77.2347 42.318 82.8019 44.9991 83.2102 49.9387V49.9387C83.4273 52.5652 85.2097 54.8002 87.7219 55.5962V55.5962C92.4469 57.0935 93.8219 63.1177 90.2145 66.5168V66.5168C88.2964 68.3241 87.6603 71.1111 88.6042 73.5716V73.5716C90.3796 78.1992 86.527 83.0303 81.6203 82.3292V82.3292C79.0114 81.9564 76.4358 83.1967 75.1007 85.4688V85.4688Z" fill="#50A0DF"/>
</svg>
