<svg width="205" height="159" viewBox="0 0 205 159" fill="none" xmlns="http://www.w3.org/2000/svg">
<circle cx="2.5" cy="79.5" r="79.5" fill="#FEBD37"/>
<mask id="path-2-outside-1_241_3841" maskUnits="userSpaceOnUse" x="7" y="57" width="163" height="55" fill="black">
<rect fill="white" x="7" y="57" width="163" height="55"/>
<path d="M19.88 71.13C17.43 73.72 13.58 74.77 9.73 74.84V67.49C14.91 66.93 18.48 64.55 19.88 60H28.84V109H19.88V71.13ZM57.942 59.44C68.162 59.44 76.492 66.37 76.492 84.57C76.492 98.64 71.312 109.77 57.452 109.77C46.252 109.77 41.422 102.42 41.492 96.05H49.402C50.032 100.67 53.602 102.63 57.662 102.63C66.622 102.63 68.092 93.18 68.092 87.37C65.712 90.1 61.932 92.69 56.262 92.69C48.632 92.69 40.232 88.07 40.232 76.31C40.232 63.92 49.892 59.44 57.942 59.44ZM58.012 66.72C53.392 66.72 48.772 69.8 48.772 76.45C48.772 83.03 53.392 85.9 58.012 85.9C62.562 85.9 67.182 83.03 67.182 76.45C67.182 69.73 62.492 66.72 58.012 66.72ZM103.483 59.44C113.703 59.44 122.033 66.37 122.033 84.57C122.033 98.64 116.853 109.77 102.993 109.77C91.793 109.77 86.963 102.42 87.033 96.05H94.943C95.573 100.67 99.143 102.63 103.203 102.63C112.163 102.63 113.633 93.18 113.633 87.37C111.253 90.1 107.473 92.69 101.803 92.69C94.173 92.69 85.773 88.07 85.773 76.31C85.773 63.92 95.433 59.44 103.483 59.44ZM103.553 66.72C98.933 66.72 94.313 69.8 94.313 76.45C94.313 83.03 98.933 85.9 103.553 85.9C108.103 85.9 112.723 83.03 112.723 76.45C112.723 69.73 108.033 66.72 103.553 66.72ZM148.744 109.7C136.494 109.7 130.894 102.77 130.964 92.62H139.364C139.434 99.34 143.844 102.07 149.094 102.07C153.924 102.07 158.544 99.69 158.544 94.3C158.544 89.82 155.394 86.67 148.324 86.67H145.664V80.09H147.904C155.394 80.09 156.724 76.31 156.724 73.51C156.724 69.17 153.364 67.07 149.164 67.07C144.964 67.07 140.974 69.17 140.904 75.75H132.574C132.574 65.32 138.524 59.37 149.304 59.37C159.314 59.37 165.404 64.55 165.404 72.04C165.404 78.27 161.344 81.77 157.354 82.82C161.204 83.31 167.644 86.6 167.644 94.86C167.644 103.47 160.364 109.7 148.744 109.7Z"/>
</mask>
<path d="M19.88 71.13H21.88V66.1054L18.4271 69.7556L19.88 71.13ZM9.73 74.84H7.73V76.8767L9.76636 76.8397L9.73 74.84ZM9.73 67.49L9.51504 65.5016L7.73 65.6946V67.49H9.73ZM19.88 60V58H18.4029L17.9684 59.4118L19.88 60ZM28.84 60H30.84V58H28.84V60ZM28.84 109V111H30.84V109H28.84ZM19.88 109H17.88V111H19.88V109ZM18.4271 69.7556C16.5024 71.7902 13.2872 72.775 9.69364 72.8403L9.76636 76.8397C13.8728 76.765 18.3576 75.6498 21.3329 72.5044L18.4271 69.7556ZM11.73 74.84V67.49H7.73V74.84H11.73ZM9.94496 69.4784C12.7779 69.1721 15.3224 68.3525 17.3905 66.8648C19.4829 65.3595 20.9719 63.2519 21.7916 60.5882L17.9684 59.4118C17.3881 61.2981 16.3921 62.6555 15.0545 63.6177C13.6926 64.5975 11.8621 65.2478 9.51504 65.5016L9.94496 69.4784ZM19.88 62H28.84V58H19.88V62ZM26.84 60V109H30.84V60H26.84ZM28.84 107H19.88V111H28.84V107ZM21.88 109V71.13H17.88V109H21.88ZM41.492 96.05V94.05H39.5138L39.4921 96.028L41.492 96.05ZM49.402 96.05L51.3836 95.7798L51.1477 94.05H49.402V96.05ZM68.092 87.37H70.092V82.0324L66.5844 86.0557L68.092 87.37ZM57.942 61.44C62.5767 61.44 66.6057 62.9928 69.5169 66.465C72.469 69.986 74.492 75.7433 74.492 84.57H78.492C78.492 75.1967 76.3499 68.389 72.5821 63.895C68.7732 59.3522 63.5272 57.44 57.942 57.44V61.44ZM74.492 84.57C74.492 91.4129 73.2234 97.2598 70.5054 101.337C67.87 105.29 63.7523 107.77 57.452 107.77V111.77C65.0116 111.77 70.414 108.685 73.8336 103.556C77.1705 98.5502 78.492 91.7971 78.492 84.57H74.492ZM57.452 107.77C52.3127 107.77 48.8431 106.097 46.6693 103.894C44.4694 101.664 43.4623 98.759 43.4918 96.072L39.4921 96.028C39.4516 99.711 40.8245 103.666 43.8221 106.703C46.8458 109.768 51.3912 111.77 57.452 111.77V107.77ZM41.492 98.05H49.402V94.05H41.492V98.05ZM47.4203 96.3202C47.8045 99.1378 49.1247 101.286 51.0751 102.694C52.9799 104.069 55.3308 104.63 57.662 104.63V100.63C55.9331 100.63 54.469 100.211 53.4163 99.4509C52.4093 98.7239 51.6294 97.5822 51.3836 95.7798L47.4203 96.3202ZM57.662 104.63C60.2745 104.63 62.4542 103.934 64.2172 102.702C65.9625 101.483 67.1856 99.8184 68.0389 98.0465C69.7209 94.5539 70.092 90.3806 70.092 87.37H66.092C66.092 90.1694 65.728 93.6261 64.435 96.311C63.8008 97.6278 62.9765 98.6893 61.9261 99.4232C60.8934 100.145 59.5294 100.63 57.662 100.63V104.63ZM66.5844 86.0557C64.4994 88.4473 61.2363 90.69 56.262 90.69V94.69C62.6276 94.69 66.9245 91.7527 69.5995 88.6843L66.5844 86.0557ZM56.262 90.69C52.8216 90.69 49.3088 89.6449 46.6894 87.3933C44.1223 85.1866 42.232 81.6686 42.232 76.31H38.232C38.232 82.7114 40.5416 87.3834 44.082 90.4267C47.5701 93.4251 52.0723 94.69 56.262 94.69V90.69ZM42.232 76.31C42.232 70.7039 44.384 67.079 47.2983 64.8057C50.2869 62.4745 54.2473 61.44 57.942 61.44V57.44C53.5866 57.44 48.692 58.6455 44.8381 61.6518C40.9099 64.716 38.232 69.5261 38.232 76.31H42.232ZM58.012 64.72C55.2731 64.72 52.4552 65.6324 50.302 67.6225C48.1164 69.6425 46.772 72.6293 46.772 76.45H50.772C50.772 73.6207 51.7375 71.7425 53.0169 70.56C54.3287 69.3476 56.1309 68.72 58.012 68.72V64.72ZM46.772 76.45C46.772 80.2459 48.1247 83.1764 50.3307 85.1373C52.4957 87.0617 55.3088 87.9 58.012 87.9V83.9C56.0951 83.9 54.2882 83.3033 52.9882 82.1477C51.7292 81.0286 50.772 79.2341 50.772 76.45H46.772ZM58.012 87.9C60.6866 87.9 63.4822 87.0579 65.6357 85.134C67.8296 83.174 69.182 80.2456 69.182 76.45H65.182C65.182 79.2344 64.2243 81.031 62.9707 82.151C61.6767 83.3071 59.8873 83.9 58.012 83.9V87.9ZM69.182 76.45C69.182 72.5902 67.817 69.6025 65.6304 67.5925C63.4791 65.6151 60.6814 64.72 58.012 64.72V68.72C59.8225 68.72 61.6098 69.3299 62.9235 70.5375C64.2019 71.7125 65.182 73.5898 65.182 76.45H69.182ZM87.033 96.05V94.05H85.0548L85.0331 96.028L87.033 96.05ZM94.943 96.05L96.9246 95.7798L96.6888 94.05H94.943V96.05ZM113.633 87.37H115.633V82.0324L112.125 86.0557L113.633 87.37ZM103.483 61.44C108.118 61.44 112.147 62.9928 115.058 66.465C118.01 69.986 120.033 75.7433 120.033 84.57H124.033C124.033 75.1967 121.891 68.389 118.123 63.895C114.314 59.3522 109.068 57.44 103.483 57.44V61.44ZM120.033 84.57C120.033 91.4129 118.764 97.2598 116.046 101.337C113.411 105.29 109.293 107.77 102.993 107.77V111.77C110.553 111.77 115.955 108.685 119.375 103.556C122.712 98.5502 124.033 91.7971 124.033 84.57H120.033ZM102.993 107.77C97.8537 107.77 94.3841 106.097 92.2104 103.894C90.0104 101.664 89.0033 98.759 89.0328 96.072L85.0331 96.028C84.9926 99.711 86.3655 103.666 89.3631 106.703C92.3868 109.768 96.9322 111.77 102.993 111.77V107.77ZM87.033 98.05H94.943V94.05H87.033V98.05ZM92.9613 96.3202C93.3455 99.1378 94.6657 101.286 96.6161 102.694C98.5209 104.069 100.872 104.63 103.203 104.63V100.63C101.474 100.63 100.01 100.211 98.9573 99.4509C97.9503 98.7239 97.1704 97.5822 96.9246 95.7798L92.9613 96.3202ZM103.203 104.63C105.816 104.63 107.995 103.934 109.758 102.702C111.503 101.483 112.727 99.8184 113.58 98.0465C115.262 94.5539 115.633 90.3806 115.633 87.37H111.633C111.633 90.1694 111.269 93.6261 109.976 96.311C109.342 97.6278 108.517 98.6893 107.467 99.4232C106.434 100.145 105.07 100.63 103.203 100.63V104.63ZM112.125 86.0557C110.04 88.4473 106.777 90.69 101.803 90.69V94.69C108.169 94.69 112.466 91.7527 115.141 88.6843L112.125 86.0557ZM101.803 90.69C98.3626 90.69 94.8498 89.6449 92.2304 87.3933C89.6633 85.1866 87.773 81.6686 87.773 76.31H83.773C83.773 82.7114 86.0826 87.3834 89.623 90.4267C93.1112 93.4251 97.6133 94.69 101.803 94.69V90.69ZM87.773 76.31C87.773 70.7039 89.925 67.079 92.8393 64.8057C95.8279 62.4745 99.7883 61.44 103.483 61.44V57.44C99.1276 57.44 94.2331 58.6455 90.3791 61.6518C86.4509 64.716 83.773 69.5261 83.773 76.31H87.773ZM103.553 64.72C100.814 64.72 97.9962 65.6324 95.843 67.6225C93.6574 69.6425 92.313 72.6293 92.313 76.45H96.313C96.313 73.6207 97.2785 71.7425 98.558 70.56C99.8697 69.3476 101.672 68.72 103.553 68.72V64.72ZM92.313 76.45C92.313 80.2459 93.6657 83.1764 95.8717 85.1373C98.0367 87.0617 100.85 87.9 103.553 87.9V83.9C101.636 83.9 99.8293 83.3033 98.5292 82.1477C97.2702 81.0286 96.313 79.2341 96.313 76.45H92.313ZM103.553 87.9C106.228 87.9 109.023 87.0579 111.177 85.134C113.371 83.174 114.723 80.2456 114.723 76.45H110.723C110.723 79.2344 109.765 81.031 108.512 82.151C107.218 83.3071 105.428 83.9 103.553 83.9V87.9ZM114.723 76.45C114.723 72.5902 113.358 69.6025 111.171 67.5925C109.02 65.6151 106.222 64.72 103.553 64.72V68.72C105.364 68.72 107.151 69.3299 108.465 70.5375C109.743 71.7125 110.723 73.5898 110.723 76.45H114.723ZM130.964 92.62V90.62H128.978L128.964 92.6062L130.964 92.62ZM139.364 92.62L141.364 92.5992L141.343 90.62H139.364V92.62ZM145.664 86.67H143.664V88.67H145.664V86.67ZM145.664 80.09V78.09H143.664V80.09H145.664ZM140.904 75.75V77.75H142.883L142.904 75.7713L140.904 75.75ZM132.574 75.75H130.574V77.75H132.574V75.75ZM157.354 82.82L156.845 80.8859L157.101 84.804L157.354 82.82ZM148.744 107.7C142.992 107.7 139.111 106.081 136.667 103.571C134.214 101.052 132.931 97.3509 132.964 92.6338L128.964 92.6062C128.927 98.0391 130.409 102.878 133.801 106.362C137.202 109.854 142.245 111.7 148.744 111.7V107.7ZM130.964 94.62H139.364V90.62H130.964V94.62ZM137.364 92.6408C137.404 96.4636 138.7 99.4152 140.981 101.38C143.216 103.305 146.148 104.07 149.094 104.07V100.07C146.79 100.07 144.892 99.4696 143.592 98.3497C142.338 97.2698 141.394 95.4964 141.364 92.5992L137.364 92.6408ZM149.094 104.07C151.801 104.07 154.61 103.408 156.8 101.828C159.067 100.193 160.544 97.6535 160.544 94.3H156.544C156.544 96.3365 155.711 97.6821 154.46 98.5843C153.133 99.5416 151.217 100.07 149.094 100.07V104.07ZM160.544 94.3C160.544 91.5555 159.556 89.034 157.341 87.248C155.187 85.5118 152.121 84.67 148.324 84.67V88.67C151.597 88.67 153.641 89.4032 154.83 90.362C155.957 91.271 156.544 92.5645 156.544 94.3H160.544ZM148.324 84.67H145.664V88.67H148.324V84.67ZM147.664 86.67V80.09H143.664V86.67H147.664ZM145.664 82.09H147.904V78.09H145.664V82.09ZM147.904 82.09C151.961 82.09 154.773 81.0643 156.551 79.2497C158.324 77.4407 158.724 75.1975 158.724 73.51H154.724C154.724 74.6225 154.459 75.6693 153.694 76.4503C152.935 77.2257 151.337 78.09 147.904 78.09V82.09ZM158.724 73.51C158.724 70.7635 157.631 68.5569 155.751 67.0871C153.936 65.6676 151.567 65.07 149.164 65.07V69.07C150.961 69.07 152.372 69.5224 153.287 70.2379C154.137 70.9031 154.724 71.9165 154.724 73.51H158.724ZM149.164 65.07C146.762 65.07 144.178 65.6684 142.164 67.4411C140.106 69.2524 138.944 72.0219 138.904 75.7287L142.904 75.7713C142.934 72.8981 143.802 71.3276 144.806 70.4439C145.855 69.5216 147.366 69.07 149.164 69.07V65.07ZM140.904 73.75H132.574V77.75H140.904V73.75ZM134.574 75.75C134.574 70.9107 135.947 67.3901 138.3 65.0739C140.656 62.7535 144.272 61.37 149.304 61.37V57.37C143.556 57.37 138.807 58.9615 135.493 62.2236C132.176 65.4899 130.574 70.1593 130.574 75.75H134.574ZM149.304 61.37C153.982 61.37 157.525 62.5808 159.854 64.4546C162.144 66.2967 163.404 68.8853 163.404 72.04H167.404C167.404 67.7047 165.619 63.9583 162.361 61.3379C159.143 58.7492 154.636 57.37 149.304 57.37V61.37ZM163.404 72.04C163.404 77.2093 160.113 80.0259 156.845 80.8859L157.863 84.7541C162.575 83.5141 167.404 79.3307 167.404 72.04H163.404ZM157.101 84.804C158.667 85.0033 160.841 85.7966 162.592 87.4008C164.286 88.9536 165.644 91.3131 165.644 94.86H169.644C169.644 90.1469 167.782 86.7314 165.294 84.4517C162.862 82.2234 159.891 81.1267 157.606 80.836L157.101 84.804ZM165.644 94.86C165.644 98.5533 164.103 101.693 161.298 103.951C158.46 106.235 154.211 107.7 148.744 107.7V111.7C154.897 111.7 160.098 110.05 163.805 107.067C167.545 104.057 169.644 99.7767 169.644 94.86H165.644Z" fill="#50A0DF" mask="url(#path-2-outside-1_241_3841)"/>
</svg>
