<svg width="28" height="28" viewBox="0 0 28 28" fill="none" xmlns="http://www.w3.org/2000/svg">
<rect x="6.13672" y="3.4668" width="17.4472" height="23.7687" fill="#F5EFE7"/>
<path d="M25.8729 0.243164H1.8682C1.47477 0.243164 1.09745 0.399454 0.819254 0.677652C0.541056 0.95585 0.384766 1.33317 0.384766 1.7266V25.7313C0.384766 25.9261 0.423136 26.119 0.497685 26.2989C0.572235 26.4789 0.681504 26.6425 0.819254 26.7802C0.957003 26.918 1.12054 27.0272 1.30051 27.1018C1.48049 27.1763 1.67339 27.2147 1.8682 27.2147H14.7876V16.7632H11.2813V12.7175H14.7876V9.6832C14.7149 8.97082 14.799 8.25118 15.034 7.57475C15.2689 6.89832 15.649 6.28148 16.1476 5.76749C16.6461 5.2535 17.2511 4.85481 17.9201 4.59939C18.589 4.34396 19.3058 4.23799 20.02 4.28889C21.0697 4.28243 22.1188 4.33647 23.1622 4.45072V8.09188H21.018C19.3188 8.09188 18.9951 8.90102 18.9951 10.0743V12.677H23.0408L22.5149 16.7228H18.9951V27.2147H25.8729C26.0677 27.2147 26.2606 27.1763 26.4405 27.1018C26.6205 27.0272 26.7841 26.918 26.9218 26.7802C27.0596 26.6425 27.1688 26.4789 27.2434 26.2989C27.3179 26.119 27.3563 25.9261 27.3563 25.7313V1.7266C27.3563 1.53179 27.3179 1.33889 27.2434 1.15891C27.1688 0.978934 27.0596 0.815402 26.9218 0.677652C26.7841 0.539902 26.6205 0.430633 26.4405 0.356084C26.2606 0.281534 26.0677 0.243164 25.8729 0.243164Z" fill="#50A0DF"/>
</svg>
