<svg width="28" height="28" viewBox="0 0 28 28" fill="none" xmlns="http://www.w3.org/2000/svg">
<path d="M27.8476 8.17279C27.8214 7.05388 27.6119 5.94684 27.2273 4.89575C26.8844 3.99643 26.3507 3.18209 25.663 2.50877C24.9952 1.81753 24.1789 1.2872 23.276 0.95791C22.2277 0.561645 21.1194 0.347288 19.9989 0.324079C18.5694 0.243164 18.1109 0.243164 14.4428 0.243164C10.7747 0.243164 10.3162 0.243164 8.88666 0.324079C7.7662 0.347288 6.65793 0.561645 5.60962 0.95791C4.70833 1.29053 3.89279 1.82041 3.22264 2.50877C2.53139 3.17656 2.00107 3.9928 1.67178 4.89575C1.27551 5.94406 1.06115 7.05233 1.03795 8.17279C0.957031 9.60228 0.957031 10.0608 0.957031 13.7289C0.957031 17.3971 0.957031 17.8556 1.03795 19.2851C1.06115 20.4055 1.27551 21.5138 1.67178 22.5621C2.00107 23.4651 2.53139 24.2813 3.22264 24.9491C3.89279 25.6375 4.70833 26.1673 5.60962 26.4999C6.65793 26.8962 7.7662 27.1106 8.88666 27.1338C10.3162 27.2147 10.7747 27.2147 14.4428 27.2147C18.1109 27.2147 18.5694 27.2147 19.9989 27.1338C21.1194 27.1106 22.2277 26.8962 23.276 26.4999C24.1789 26.1707 24.9952 25.6403 25.663 24.9491C26.3537 24.2783 26.8879 23.4632 27.2273 22.5621C27.6119 21.511 27.8214 20.404 27.8476 19.2851C27.8476 17.8556 27.9286 17.3971 27.9286 13.7289C27.9286 10.0608 27.9286 9.60228 27.8476 8.17279ZM25.4202 19.1232C25.4104 19.9793 25.2553 20.8274 24.9617 21.6316C24.7464 22.2185 24.4005 22.7488 23.9503 23.1824C23.5128 23.6282 22.9836 23.9733 22.3994 24.1939C21.5952 24.4875 20.7471 24.6426 19.891 24.6524C18.5425 24.7198 18.0435 24.7333 14.4967 24.7333C10.95 24.7333 10.451 24.7333 9.10243 24.6524C8.21357 24.669 7.32851 24.5322 6.48619 24.2478C5.92759 24.016 5.42265 23.6717 5.00276 23.2364C4.55515 22.8032 4.21363 22.2724 4.00481 21.6855C3.67557 20.8698 3.49295 20.0024 3.46538 19.1232C3.46538 17.7747 3.38447 17.2757 3.38447 13.7289C3.38447 10.1822 3.38447 9.6832 3.46538 8.33462C3.47143 7.45947 3.63119 6.59219 3.93739 5.77233C4.1748 5.20311 4.53921 4.6957 5.00276 4.28889C5.41248 3.82521 5.91883 3.45695 6.48619 3.21003C7.30822 2.9134 8.17461 2.75837 9.04849 2.75152C10.3971 2.75152 10.896 2.6706 14.4428 2.6706C17.9896 2.6706 18.4885 2.6706 19.8371 2.75152C20.6931 2.76133 21.5413 2.91637 22.3455 3.21003C22.9583 3.43747 23.5083 3.80724 23.9503 4.28889C24.3922 4.70315 24.7375 5.20961 24.9617 5.77233C25.2614 6.59352 25.4166 7.46045 25.4202 8.33462C25.4876 9.6832 25.5011 10.1822 25.5011 13.7289C25.5011 17.2757 25.4876 17.7747 25.4202 19.1232Z" fill="#50A0DF"/>
<circle cx="14.411" cy="13.6971" r="5.98521" stroke="#50A0DF" stroke-width="2"/>
<circle cx="21.6494" cy="6.52248" r="1.64358" fill="#50A0DF"/>
</svg>
