<?xml version="1.0" encoding="UTF-8"?>
<svg id="Layer_1" data-name="Layer 1" xmlns="http://www.w3.org/2000/svg" viewBox="0 0 165.85 142.48">
  <defs>
    <style>
      .cls-1 {
        fill: #febd37;
        font-family: ArticulatCF-DemiBold, 'Articulat CF';
        font-size: 21px;
        font-weight: 300;
      }
    </style>
  </defs>
  <text class="cls-1" transform="translate(82.55 17.11) rotate(6.12)"><tspan x="0" y="0">h</tspan></text>
  <text class="cls-1" transform="translate(94.3 18.61) rotate(14.79)"><tspan x="0" y="0">i</tspan></text>
  <text class="cls-1" transform="translate(98.67 19.43) rotate(23.54)"><tspan x="0" y="0">g</tspan></text>
  <text class="cls-1" transform="translate(109.46 24.05) rotate(35.98)"><tspan x="0" y="0">h</tspan></text>
  <text class="cls-1" transform="translate(118.92 31.1) rotate(46.11)"><tspan x="0" y="0">-</tspan></text>
  <text class="cls-1" transform="translate(124.17 36.34) rotate(55.25)"><tspan x="0" y="0">s</tspan></text>
  <text class="cls-1" transform="translate(129.87 44.25) rotate(66.77)"><tspan x="0" y="0">p</tspan></text>
  <text class="cls-1" transform="translate(134.62 55.27) rotate(79.09)"><tspan x="0" y="0">e</tspan></text>
  <text class="cls-1" transform="translate(136.79 66.12) rotate(90.93)"><tspan x="0" y="0">e</tspan></text>
  <text class="cls-1" transform="translate(136.74 77.21) rotate(102.98)"><tspan x="0" y="0">d</tspan></text>
  <text class="cls-1" transform="translate(133.79 88.9) rotate(111.74)"><tspan x="0" y="0"> </tspan></text>
  <text class="cls-1" transform="translate(132.13 93.12) rotate(116.64)"><tspan x="0" y="0">l</tspan></text>
  <text class="cls-1" transform="translate(130.06 97.26) rotate(121.59)"><tspan x="0" y="0">i</tspan></text>
  <text class="cls-1" transform="translate(128.01 101.2) rotate(130.22)"><tspan x="0" y="0">n</tspan></text>
  <text class="cls-1" transform="translate(120.48 110.16) rotate(142.18)"><tspan x="0" y="0">e</tspan></text>
  <text class="cls-1" transform="translate(111.77 116.93) rotate(153.23)"><tspan x="0" y="0">s</tspan></text>
  <text class="cls-1" transform="translate(102.84 121.26) rotate(160.86)"><tspan x="0" y="0"> </tspan></text>
  <text class="cls-1" transform="translate(98.79 122.92) rotate(168.75)"><tspan x="0" y="0">*</tspan></text>
  <text class="cls-1" transform="translate(88.62 124.77) rotate(176.55)"><tspan x="0" y="0"> </tspan></text>
  <text class="cls-1" transform="translate(84.31 125.35) rotate(-174.95)"><tspan x="0" y="0">h</tspan></text>
  <text class="cls-1" transform="translate(72.51 124.06) rotate(-166.26)"><tspan x="0" y="0">i</tspan></text>
  <text class="cls-1" transform="translate(68.13 123.33) rotate(-157.51)"><tspan x="0" y="0">g</tspan></text>
  <text class="cls-1" transform="translate(57.25 118.9) rotate(-145.05)"><tspan x="0" y="0">h</tspan></text>
  <text class="cls-1" transform="translate(47.67 112.04) rotate(-134.94)"><tspan x="0" y="0">-</tspan></text>
  <text class="cls-1" transform="translate(42.33 106.89) rotate(-125.8)"><tspan x="0" y="0">s</tspan></text>
  <text class="cls-1" transform="translate(36.48 99.08) rotate(-114.28)"><tspan x="0" y="0">p</tspan></text>
  <text class="cls-1" transform="translate(31.53 88.16) rotate(-101.97)"><tspan x="0" y="0">e</tspan></text>
  <text class="cls-1" transform="translate(29.25 77.34) rotate(-90.93)"><tspan x="0" y="0">e</tspan></text>
  <text class="cls-1" transform="translate(29.01 66.25) rotate(-78.08)"><tspan x="0" y="0">d</tspan></text>
  <text class="cls-1" transform="translate(31.75 54.51) rotate(-69.32)"><tspan x="0" y="0"> </tspan></text>
  <text class="cls-1" transform="translate(33.34 50.26) rotate(-64.4)"><tspan x="0" y="0">l</tspan></text>
  <text class="cls-1" transform="translate(35.33 46.07) rotate(-59.45)"><tspan x="0" y="0">i</tspan></text>
  <text class="cls-1" transform="translate(37.31 42.09) rotate(-50.81)"><tspan x="0" y="0">n</tspan></text>
  <text class="cls-1" transform="translate(44.67 33) rotate(-38.85)"><tspan x="0" y="0">e</tspan></text>
  <text class="cls-1" transform="translate(53.23 26.1) rotate(-27.86)"><tspan x="0" y="0">s</tspan></text>
  <text class="cls-1" transform="translate(62.09 21.59) rotate(-20.2)"><tspan x="0" y="0"> </tspan></text>
  <text class="cls-1" transform="translate(66.1 19.86) rotate(-12.33)"><tspan x="0" y="0">*</tspan></text>
</svg>