<svg width="113" height="113" viewBox="0 0 113 113" fill="none" xmlns="http://www.w3.org/2000/svg">
<path d="M45.7732 18.2546C50.5826 10.0701 62.4174 10.0701 67.2268 18.2546V18.2546C69.7839 22.6063 74.7168 24.9819 79.7134 24.2679V24.2679C89.1109 22.925 96.4898 32.1778 93.0895 41.0409V41.0409C91.2815 45.7534 92.4999 51.0912 96.1734 54.5526V54.5526C103.083 61.0626 100.449 72.6006 91.3996 75.4682V75.4682C86.588 76.9929 83.1743 81.2735 82.7585 86.3038V86.3038C81.9766 95.7645 71.3138 100.899 63.4296 95.6121V95.6121C59.2375 92.8008 53.7625 92.8008 49.5704 95.6121V95.6121C41.6862 100.899 31.0234 95.7645 30.2415 86.3038V86.3038C29.8257 81.2735 26.412 76.9929 21.6004 75.4682V75.4682C12.5509 72.6006 9.91743 61.0626 16.8266 54.5526V54.5526C20.5001 51.0912 21.7185 45.7534 19.9105 41.0409V41.0409C16.5102 32.1778 23.889 22.925 33.2866 24.2679V24.2679C38.2832 24.9818 43.2161 22.6063 45.7732 18.2546V18.2546Z" fill="#50A0DF"/>
<path d="M30.1087 61.168C27.6447 61.168 25.7967 59.026 25.7967 56.1C25.7967 53.174 27.6167 51.032 30.0947 51.032C30.8927 51.032 32.0967 51.284 32.8807 51.816C32.9227 52.656 32.9367 53.538 32.9227 54.392H32.7267C32.3487 53.174 31.1447 51.298 29.8707 51.298C28.5267 51.298 27.4907 52.964 27.4907 56.1C27.4907 59.25 28.5407 60.888 30.0107 60.888C31.2007 60.888 32.3347 59.32 32.7547 58.06H32.9367C32.9507 58.83 32.9367 59.614 32.8947 60.384C32.1107 60.958 30.8647 61.168 30.1087 61.168ZM38.8627 61.168C36.7347 61.168 34.8027 59.404 34.8027 56.086C34.8027 52.796 36.7347 51.032 38.8627 51.032C41.0047 51.032 42.9367 52.796 42.9367 56.086C42.9367 59.404 41.0047 61.168 38.8627 61.168ZM38.8627 60.902C40.2347 60.902 41.2427 59.516 41.2427 56.086C41.2427 52.684 40.2347 51.298 38.8627 51.298C37.4907 51.298 36.4967 52.684 36.4967 56.086C36.4967 59.516 37.4907 60.902 38.8627 60.902ZM51.4232 51.256C51.8292 51.256 52.2352 51.228 52.6692 51.2V51.382C51.7452 51.578 51.5632 52.894 51.5632 53.944V61.084H51.2412L45.8232 52.992V58.2C45.8232 59.614 46.1032 60.622 46.9852 60.818V61C46.5232 60.958 46.0892 60.944 45.6692 60.944C45.2632 60.944 44.8572 60.958 44.3812 61V60.818C45.1652 60.65 45.4872 59.712 45.4872 58.2V54.014C45.4872 52.824 45.3892 51.592 44.4092 51.382V51.2C44.7732 51.214 45.1232 51.228 45.4592 51.228C45.7672 51.228 46.0752 51.228 46.3412 51.2L51.2272 58.564V53.944C51.2272 52.74 51.0032 51.592 50.0652 51.382V51.2C50.5412 51.228 50.9892 51.256 51.4232 51.256ZM60.9623 51.256C61.3683 51.256 61.7743 51.228 62.2083 51.2V51.382C61.2843 51.578 61.1023 52.894 61.1023 53.944V61.084H60.7803L55.3623 52.992V58.2C55.3623 59.614 55.6423 60.622 56.5243 60.818V61C56.0623 60.958 55.6283 60.944 55.2083 60.944C54.8023 60.944 54.3963 60.958 53.9203 61V60.818C54.7043 60.65 55.0263 59.712 55.0263 58.2V54.014C55.0263 52.824 54.9283 51.592 53.9483 51.382V51.2C54.3123 51.214 54.6623 51.228 54.9983 51.228C55.3063 51.228 55.6143 51.228 55.8803 51.2L60.7663 58.564V53.944C60.7663 52.74 60.5423 51.592 59.6043 51.382V51.2C60.0803 51.228 60.5283 51.256 60.9623 51.256ZM69.7595 58.424C69.7735 59.236 69.7595 60.104 69.7035 61C68.4295 60.958 67.4215 60.958 66.4555 60.958C65.5315 60.958 64.5795 60.958 63.4595 61V60.818C64.2715 60.65 64.5655 59.754 64.5655 58.256V53.93C64.5655 52.418 64.3275 51.564 63.5015 51.382V51.2C64.2155 51.214 64.9155 51.228 65.8395 51.228C66.7915 51.228 67.9395 51.214 69.4515 51.2C69.4795 52.04 69.4935 52.782 69.4935 53.65H69.2975C68.7795 52.194 68.0095 51.522 66.8475 51.522C66.5255 51.522 66.1895 51.536 65.8955 51.55V55.736H66.8895C67.6175 55.736 68.2055 55.05 68.3875 54.336H68.5695C68.5695 54.742 68.5555 55.33 68.5555 55.918C68.5555 56.464 68.5555 57.01 68.5695 57.416H68.3875C68.2055 56.716 67.6175 56.058 66.8895 56.058H65.8955V58.494C65.8955 59.698 66.1335 60.664 66.9735 60.664C67.4495 60.664 67.6595 60.65 67.9815 60.496C68.6115 60.23 69.2415 59.376 69.5775 58.424H69.7595ZM75.7673 61.168C73.3033 61.168 71.4553 59.026 71.4553 56.1C71.4553 53.174 73.2753 51.032 75.7533 51.032C76.5513 51.032 77.7553 51.284 78.5393 51.816C78.5813 52.656 78.5953 53.538 78.5813 54.392H78.3853C78.0073 53.174 76.8033 51.298 75.5293 51.298C74.1853 51.298 73.1493 52.964 73.1493 56.1C73.1493 59.25 74.1993 60.888 75.6693 60.888C76.8593 60.888 77.9933 59.32 78.4133 58.06H78.5953C78.6093 58.83 78.5953 59.614 78.5533 60.384C77.7693 60.958 76.5233 61.168 75.7673 61.168ZM87.1386 51.2L87.3206 53.818H87.1246C86.5926 52.656 85.8646 51.494 84.6746 51.494H84.5206L84.5486 58.382C84.5626 59.782 84.8426 60.65 85.7806 60.818V61C85.1506 60.958 84.5066 60.944 83.8486 60.944C83.2046 60.944 82.5466 60.958 81.9166 61V60.818C82.8406 60.65 83.1486 59.796 83.1486 58.382L83.1766 51.494H83.0226C81.8606 51.494 81.1046 52.628 80.5726 53.818H80.3906L80.5586 51.2H87.1386Z" fill="white"/>
</svg>
