<svg width="86" height="91" viewBox="0 0 86 91" fill="none" xmlns="http://www.w3.org/2000/svg">
<path d="M36.8616 14.7006C40.7347 8.10954 50.2653 8.10953 54.1384 14.7006V14.7006C56.1977 18.2051 60.1702 20.1181 64.194 19.5431V19.5431C71.7619 18.4617 77.7042 25.9131 74.9659 33.0506V33.0506C73.5099 36.8457 74.491 41.1443 77.4494 43.9317V43.9317C83.0134 49.1743 80.8926 58.466 73.605 60.7753V60.7753C69.7301 62.0031 66.9811 65.4503 66.6463 69.5013V69.5013C66.0165 77.1201 57.4297 81.2552 51.0805 76.9973V76.9973C47.7046 74.7334 43.2954 74.7334 39.9195 76.9973V76.9973C33.5703 81.2552 24.9835 77.12 24.3537 69.5013V69.5013C24.0189 65.4503 21.2699 62.0031 17.395 60.7753V60.7753C10.1074 58.466 7.98661 49.1743 13.5506 43.9317V43.9317C16.509 41.1443 17.4901 36.8457 16.0341 33.0506V33.0506C13.2958 25.9131 19.2381 18.4617 26.806 19.5431V19.5431C30.8298 20.1181 34.8023 18.2051 36.8616 14.7006V14.7006Z" fill="#50A0DF"/>
<path d="M28.7369 46.3466H27.9809V47.7606C27.9809 49.4966 28.3309 50.1406 29.3949 50.3366V50.5186C28.7509 50.4766 28.1489 50.4626 27.5049 50.4626C26.9029 50.4626 26.2589 50.4766 25.5589 50.5186V50.3366C26.3429 50.1686 26.6649 49.3426 26.6649 47.7746V43.2106C26.6649 41.8106 26.3849 41.0826 25.6009 40.9006V40.7186H28.7369C30.4449 40.7186 31.9849 41.6566 31.9849 43.4906C31.9849 45.1426 30.7109 46.3466 28.7369 46.3466ZM28.6389 40.9986C28.4289 40.9986 28.1909 40.9986 27.9809 41.0126V46.0386H28.5409C29.7169 46.0386 30.4029 45.0306 30.4029 43.4206C30.4029 41.9226 29.7869 40.9986 28.6389 40.9986ZM38.179 45.3386C39.761 45.6886 40.363 46.7106 40.363 47.8306C40.349 49.3006 39.341 50.5186 36.835 50.5186H33.307V50.3366C34.119 50.1406 34.413 49.3146 34.413 47.7746V43.2246C34.413 41.8106 34.105 41.0826 33.349 40.9006V40.7186H37.283C38.543 40.7186 39.985 41.5446 39.985 43.0566C39.985 44.1206 39.257 45.0446 38.179 45.3386ZM36.793 40.9846C36.345 40.9846 36.135 40.9986 35.743 41.0126V45.2266H36.933C37.731 45.2266 38.375 44.4006 38.375 43.0146C38.375 41.6706 37.829 40.9846 36.793 40.9846ZM38.179 49.7766C38.529 49.3986 38.697 48.7406 38.711 47.9146C38.711 46.0526 37.871 45.5346 36.919 45.5346H35.743V49.0906C35.743 49.3986 35.771 49.8186 35.911 50.0286C36.037 50.1966 36.303 50.2386 36.821 50.2386C37.451 50.2386 37.885 50.1126 38.179 49.7766ZM48.4968 48.5726C49.1268 49.5946 49.6448 50.0986 50.2188 50.3506V50.5186C49.8548 50.4906 49.4208 50.4906 48.9868 50.4906C48.5668 50.4906 48.1468 50.4906 47.7968 50.5186C47.7128 50.1546 47.5868 49.8186 47.3068 49.3566L45.0948 45.5486L44.2968 46.5286V47.7746C44.2968 49.2866 44.6468 50.1686 45.4028 50.3366V50.5186C44.7728 50.4766 44.1988 50.4626 43.6248 50.4626C43.0648 50.4626 42.5188 50.4766 41.9028 50.5186V50.3366C42.6728 50.1826 43.0088 49.3146 43.0088 47.7746V43.4066C43.0088 41.7966 42.7708 41.0686 41.9448 40.9006V40.7186C42.4628 40.7466 43.0788 40.7746 43.6388 40.7746C44.2268 40.7746 44.7448 40.7606 45.3608 40.7186V40.9006C44.5488 41.0966 44.2968 41.8386 44.2968 43.4066V46.0106L46.6628 43.0566C47.1528 42.4546 47.4188 41.9786 47.4188 41.6006C47.4188 41.2786 47.2228 40.9706 46.7048 40.9006V40.7186C47.1808 40.7326 47.7548 40.7606 48.2868 40.7606C48.8328 40.7606 49.3368 40.7326 49.6448 40.7186V40.9006C48.8468 41.2086 48.3568 41.5586 47.7408 42.3286L46.0188 44.4286L48.4968 48.5726ZM57.8478 48.2506C58.2118 49.2726 58.6038 50.0986 59.3318 50.3366V50.5186C58.7438 50.4766 58.0858 50.4626 57.4138 50.4626C56.7698 50.4626 56.1538 50.4766 55.6498 50.5186V50.3366C56.5878 50.0146 56.6158 49.2166 56.2238 48.0546L55.9438 47.2006H52.9058L52.6538 47.9006C52.2058 49.1466 52.2898 50.0846 53.2698 50.3366V50.5186C52.8918 50.4906 52.3738 50.4626 51.8978 50.4626C51.3798 50.4626 50.9038 50.4906 50.6938 50.5186V50.3366C51.2678 50.1126 51.7018 49.4546 52.1358 48.2646L54.9218 40.5366H55.1038L57.8478 48.2506ZM53.0178 46.8786H55.8318L54.4738 42.7626L53.0178 46.8786ZM60.2701 50.5186V50.3366C61.0401 50.1686 61.3761 49.3146 61.3761 47.7746V43.4486C61.3761 42.1046 61.2361 41.0966 60.3121 40.9006V40.7186C60.8581 40.7466 61.4741 40.7746 62.0761 40.7746C62.6921 40.7746 63.2661 40.7466 63.8541 40.7186V40.9006C62.8741 41.0966 62.7201 42.0486 62.7201 43.4486V48.2086C62.7201 49.1746 62.8601 50.1686 63.9801 50.1686C64.5261 50.1686 64.8201 50.0706 65.1701 49.7906C65.5901 49.4406 66.0941 48.7686 66.3601 47.9706H66.5421C66.5561 48.7686 66.5421 49.6226 66.5001 50.5186C65.2541 50.4766 64.2741 50.4766 63.2801 50.4766C62.3561 50.4766 61.4041 50.4766 60.2701 50.5186Z" fill="white"/>
</svg>
