<svg width="143" height="155" viewBox="0 0 143 155" fill="none" xmlns="http://www.w3.org/2000/svg">
<circle cx="48.5" cy="106.5" r="48.5" fill="#FEBD37"/>
<mask id="path-2-outside-1_238_3840" maskUnits="userSpaceOnUse" x="23" y="34" width="117" height="76" fill="black">
<rect fill="white" x="23" y="34" width="117" height="76"/>
<path d="M53.7 108C39.6 108 25.9 98 25.9 72C25.9 46.2 39.6 36.1 53.7 36.1C67.8 36.1 81.5 46.2 81.5 72C81.5 98 67.8 108 53.7 108ZM53.7 97.2C64.7 97.2 69.2 85.9 69.2 72C69.2 58.3 64.7 46.9 53.7 46.9C42.6 46.9 38.1 58.3 38.1 72C38.1 85.9 42.6 97.2 53.7 97.2ZM89.2813 103.8C89.2813 91.3 93.3813 82.8 108.081 74.2C117.681 68.5 124.881 65.2 124.981 57.1C125.081 49.7 119.581 47 113.981 47C107.881 47 102.581 50.4 102.581 59V60.4H90.1813V58.4C90.1813 45.9 97.5813 36.1 114.081 36.1C129.481 36.1 137.781 44.5 137.781 56.3C137.781 69.6 127.481 75.2 118.581 80.3C108.381 86.3 103.881 90.5 103.881 95.9V96.4H137.681V107H89.2813V103.8Z"/>
</mask>
<path d="M53.7 106C47.1313 106 40.7524 103.681 35.9975 98.4103C31.2317 93.1277 27.9 84.6587 27.9 72H23.9C23.9 85.3413 27.4183 94.8723 33.0275 101.09C38.6476 107.319 46.1687 110 53.7 110V106ZM27.9 72C27.9 59.4452 31.2297 50.9995 35.9975 45.7147C40.7554 40.4409 47.1363 38.1 53.7 38.1V34.1C46.1637 34.1 38.6446 36.8091 33.0275 43.0353C27.4203 49.2505 23.9 58.7548 23.9 72H27.9ZM53.7 38.1C60.2637 38.1 66.6446 40.4409 71.4025 45.7147C76.1703 50.9995 79.5 59.4452 79.5 72H83.5C83.5 58.7548 79.9797 49.2505 74.3725 43.0353C68.7554 36.8091 61.2363 34.1 53.7 34.1V38.1ZM79.5 72C79.5 84.6587 76.1683 93.1277 71.4025 98.4103C66.6476 103.681 60.2687 106 53.7 106V110C61.2313 110 68.7524 107.319 74.3725 101.09C79.9817 94.8723 83.5 85.3413 83.5 72H79.5ZM53.7 99.2C60.0517 99.2 64.5403 95.8629 67.329 90.7736C70.0565 85.7959 71.2 79.1146 71.2 72H67.2C67.2 78.7854 66.0936 84.7041 63.8211 88.8514C61.6097 92.8871 58.3483 95.2 53.7 95.2V99.2ZM71.2 72C71.2 64.9814 70.0552 58.3269 67.329 53.3514C64.5438 48.2686 60.0581 44.9 53.7 44.9V48.9C58.3419 48.9 61.6062 51.2314 63.8211 55.2736C66.0948 59.4231 67.2 65.3185 67.2 72H71.2ZM53.7 44.9C47.2998 44.9 42.7871 48.2604 39.9856 53.3477C37.2446 58.3251 36.1 64.9818 36.1 72H40.1C40.1 65.3182 41.2054 59.4249 43.4894 55.2773C45.7129 51.2396 49.0002 48.9 53.7 48.9V44.9ZM36.1 72C36.1 79.1142 37.2434 85.7977 39.9856 90.7773C42.7907 95.8711 47.3062 99.2 53.7 99.2V95.2C48.9938 95.2 45.7093 92.8789 43.4894 88.8477C41.2066 84.7023 40.1 78.7858 40.1 72H36.1ZM108.081 74.2L109.091 75.9263L109.102 75.9197L108.081 74.2ZM124.981 57.1L122.981 57.073L122.981 57.0753L124.981 57.1ZM102.581 60.4V62.4H104.581V60.4H102.581ZM90.1813 60.4H88.1813V62.4H90.1813V60.4ZM118.581 80.3L117.587 78.5647L117.577 78.5704L117.567 78.5761L118.581 80.3ZM103.881 96.4H101.881V98.4H103.881V96.4ZM137.681 96.4H139.681V94.4H137.681V96.4ZM137.681 107V109H139.681V107H137.681ZM89.2813 107H87.2813V109H89.2813V107ZM91.2813 103.8C91.2813 97.7749 92.2677 92.919 94.8829 88.5678C97.5114 84.1947 101.907 80.1295 109.091 75.9263L107.071 72.4737C99.5559 76.8705 94.5511 81.3553 91.4546 86.5072C88.3448 91.681 87.2813 97.3251 87.2813 103.8H91.2813ZM109.102 75.9197C113.766 73.1509 118.205 70.7688 121.386 68.0765C124.7 65.2714 126.922 61.9164 126.981 57.1247L122.981 57.0753C122.941 60.3836 121.513 62.7286 118.802 65.0235C115.957 67.4312 111.997 69.5491 107.06 72.4803L109.102 75.9197ZM126.981 57.127C127.039 52.8649 125.452 49.7178 122.845 47.6947C120.321 45.737 117.062 45 113.981 45V49C116.501 49 118.791 49.613 120.393 50.8552C121.91 52.0322 123.024 53.9351 122.981 57.073L126.981 57.127ZM113.981 45C110.58 45 107.193 45.9489 104.638 48.3047C102.052 50.6894 100.581 54.2735 100.581 59H104.581C104.581 55.1265 105.761 52.7105 107.35 51.2453C108.97 49.7511 111.282 49 113.981 49V45ZM100.581 59V60.4H104.581V59H100.581ZM102.581 58.4H90.1813V62.4H102.581V58.4ZM92.1813 60.4V58.4H88.1813V60.4H92.1813ZM92.1813 58.4C92.1813 52.5356 93.9125 47.5105 97.3757 43.9588C100.826 40.4205 106.233 38.1 114.081 38.1V34.1C105.429 34.1 98.8867 36.6795 94.5118 41.1662C90.15 45.6395 88.1813 51.7644 88.1813 58.4H92.1813ZM114.081 38.1C121.428 38.1 126.832 40.1007 130.373 43.2662C133.894 46.4123 135.781 50.8906 135.781 56.3H139.781C139.781 49.9094 137.519 44.2877 133.039 40.2838C128.581 36.2993 122.134 34.1 114.081 34.1V38.1ZM135.781 56.3C135.781 68.272 126.702 73.3416 117.587 78.5647L119.576 82.0353C128.261 77.0584 139.781 70.928 139.781 56.3H135.781ZM117.567 78.5761C112.442 81.5912 108.569 84.2532 105.97 86.9327C103.318 89.6684 101.881 92.5423 101.881 95.9H105.881C105.881 93.8577 106.695 91.9316 108.842 89.7173C111.044 87.4468 114.521 85.0088 119.595 82.0239L117.567 78.5761ZM101.881 95.9V96.4H105.881V95.9H101.881ZM103.881 98.4H137.681V94.4H103.881V98.4ZM135.681 96.4V107H139.681V96.4H135.681ZM137.681 105H89.2813V109H137.681V105ZM91.2813 107V103.8H87.2813V107H91.2813Z" fill="#50A0DF" mask="url(#path-2-outside-1_238_3840)"/>
</svg>
