<svg width="321" height="439" viewBox="0 0 321 439" fill="none" xmlns="http://www.w3.org/2000/svg">
<path fill-rule="evenodd" clip-rule="evenodd" d="M0 439C121.502 439 220 340.727 220 219.5C220 98.2734 121.502 0 0 0V439Z" fill="#FEBD37"/>
<path d="M233.578 296.007C227.475 306.341 212.525 306.341 206.422 296.007L198.629 282.811C195.384 277.317 189.148 274.32 182.831 275.218L167.633 277.379C155.714 279.074 146.369 267.327 150.7 256.094L156.113 242.053C158.423 236.062 156.87 229.268 152.186 224.876L141.197 214.574C132.4 206.326 135.739 191.657 147.24 188.031L161.735 183.46C167.842 181.535 172.178 176.108 172.708 169.727L173.963 154.613C174.958 142.642 188.438 136.134 198.431 142.802L211.247 151.354C216.547 154.891 223.453 154.891 228.753 151.354L241.569 142.802C251.562 136.134 265.042 142.642 266.037 154.613L267.292 169.727C267.822 176.108 272.158 181.535 278.265 183.46L292.76 188.031C304.261 191.657 307.6 206.326 298.803 214.574L287.814 224.876C283.13 229.268 281.577 236.062 283.887 242.053L289.3 256.094C293.631 267.327 284.286 279.074 272.367 277.379L257.169 275.218C250.852 274.32 244.616 277.317 241.371 282.811L233.578 296.007Z" fill="#50A0DF"/>
</svg>
