<svg width="375" height="133" viewBox="0 0 375 133" fill="none" xmlns="http://www.w3.org/2000/svg">
<path d="M0 67L375 67" stroke="#B0B0B0" stroke-width="0.5"/>
<path fill-rule="evenodd" clip-rule="evenodd" d="M375 132.292C373.649 132.374 372.288 132.416 370.917 132.416C334.512 132.416 305 102.904 305 66.4997C305 30.0949 334.512 0.583008 370.917 0.583008C372.288 0.583008 373.649 0.624882 375 0.70742V132.292Z" fill="#50A0DF"/>
<path d="M298.899 46.5312C301.41 42.2578 307.59 42.2578 310.101 46.5312V46.5312C311.436 48.8033 314.011 50.0436 316.62 49.6708V49.6708C321.527 48.9697 325.38 53.8008 323.604 58.4284V58.4284C322.66 60.8889 323.296 63.6759 325.214 65.4832V65.4832C328.822 68.8822 327.447 74.9065 322.722 76.4038V76.4038C320.21 77.1998 318.427 79.4348 318.21 82.0613V82.0613C317.802 87.0009 312.235 89.682 308.118 86.9214V86.9214C305.929 85.4535 303.071 85.4535 300.882 86.9214V86.9214C296.765 89.682 291.198 87.0009 290.79 82.0613V82.0613C290.573 79.4348 288.79 77.1998 286.278 76.4038V76.4038C281.553 74.9065 280.178 68.8822 283.786 65.4832V65.4832C285.704 63.6759 286.34 60.8889 285.396 58.4284V58.4284C283.62 53.8008 287.473 48.9697 292.38 49.6708V49.6708C294.989 50.0436 297.564 48.8033 298.899 46.5312V46.5312Z" fill="#FEBD37"/>
</svg>
