<svg width="317" height="419" viewBox="0 0 317 419" fill="none" xmlns="http://www.w3.org/2000/svg">
<path fill-rule="evenodd" clip-rule="evenodd" d="M317.002 418.495C312.721 418.756 308.405 418.889 304.059 418.889C188.655 418.889 95.1028 325.336 95.1028 209.933C95.1028 94.5302 188.655 0.977539 304.059 0.977539C308.405 0.977539 312.721 1.11026 317.002 1.37188V418.495Z" fill="#50A0DF"/>
<path d="M79.9195 139.556C86.0151 129.182 101.015 129.182 107.111 139.556L112.908 149.422C116.149 154.937 122.401 157.948 128.734 157.043L140.062 155.424C151.973 153.722 161.325 165.45 157.016 176.683L152.917 187.367C150.625 193.34 152.17 200.105 156.826 204.492L165.154 212.34C173.911 220.591 170.573 235.215 159.104 238.849L148.195 242.306C142.096 244.238 137.77 249.664 137.243 256.039L136.3 267.444C135.309 279.435 121.795 285.943 111.802 279.242L102.298 272.868C96.9847 269.305 90.0453 269.305 84.7322 272.868L75.2281 279.242C65.2353 285.943 51.7209 279.435 50.7298 267.444L49.7872 256.039C49.2602 249.664 44.9336 244.238 38.8352 242.306L27.9264 238.849C16.4567 235.215 13.1189 220.591 21.8758 212.34L30.2045 204.492C34.8605 200.105 36.4047 193.34 34.1132 187.367L30.0143 176.683C25.7046 165.45 35.0568 153.722 46.9676 155.424L58.2959 157.043C64.6288 157.948 70.881 154.937 74.122 149.422L79.9195 139.556Z" fill="#FEBD37"/>
</svg>
