<svg width="598" height="288" viewBox="0 0 598 288" fill="none" xmlns="http://www.w3.org/2000/svg">
<circle cx="183.5" cy="167.5" r="109.5" fill="#FEBD37"/>
<mask id="path-2-outside-1_155_3583" maskUnits="userSpaceOnUse" x="1" y="50" width="182" height="117" fill="black">
<rect fill="white" x="1" y="50" width="182" height="117"/>
<path d="M47.55 162.5C26.4 162.5 5.85 147.5 5.85 108.5C5.85 69.8 26.4 54.65 47.55 54.65C68.7 54.65 89.25 69.8 89.25 108.5C89.25 147.5 68.7 162.5 47.55 162.5ZM47.55 146.3C64.05 146.3 70.8 129.35 70.8 108.5C70.8 87.95 64.05 70.85 47.55 70.85C30.9 70.85 24.15 87.95 24.15 108.5C24.15 129.35 30.9 146.3 47.55 146.3ZM138.122 162.5C111.872 162.5 99.8719 147.65 100.022 125.9H118.022C118.172 140.3 127.622 146.15 138.872 146.15C149.222 146.15 159.122 141.05 159.122 129.5C159.122 119.9 152.372 113.15 137.222 113.15H131.522V99.05H136.322C152.372 99.05 155.222 90.95 155.222 84.95C155.222 75.65 148.022 71.15 139.022 71.15C130.022 71.15 121.472 75.65 121.322 89.75H103.472C103.472 67.4 116.222 54.65 139.322 54.65C160.772 54.65 173.822 65.75 173.822 81.8C173.822 95.15 165.122 102.65 156.572 104.9C164.822 105.95 178.622 113 178.622 130.7C178.622 149.15 163.022 162.5 138.122 162.5Z"/>
</mask>
<path d="M47.55 158.5C37.9375 158.5 28.6548 155.112 21.7387 147.446C14.8009 139.755 9.85 127.317 9.85 108.5H1.85C1.85 128.683 7.17409 143.245 15.7988 152.804C24.4452 162.388 36.0125 166.5 47.55 166.5V158.5ZM9.85 108.5C9.85 89.8404 14.7969 77.4365 21.7387 69.7419C28.6608 62.0693 37.9477 58.65 47.55 58.65V50.65C36.0023 50.65 24.4392 54.8057 15.7988 64.3831C7.17812 73.9385 1.85 88.4595 1.85 108.5H9.85ZM47.55 58.65C57.1524 58.65 66.4392 62.0693 73.3613 69.7419C80.3031 77.4365 85.25 89.8404 85.25 108.5H93.25C93.25 88.4595 87.9219 73.9385 79.3012 64.3831C70.6608 54.8057 59.0977 50.65 47.55 50.65V58.65ZM85.25 108.5C85.25 127.317 80.2991 139.755 73.3613 147.446C66.4452 155.112 57.1625 158.5 47.55 158.5V166.5C59.0875 166.5 70.6548 162.388 79.3012 152.804C87.9259 143.245 93.25 128.683 93.25 108.5H85.25ZM47.55 150.3C57.5034 150.3 64.543 145.038 68.8704 137.141C73.0754 129.467 74.8 119.254 74.8 108.5H66.8C66.8 118.596 65.1496 127.283 61.8546 133.297C58.682 139.087 54.0966 142.3 47.55 142.3V150.3ZM74.8 108.5C74.8 97.8879 73.073 87.7163 68.8704 80.0466C64.5501 72.1621 57.5162 66.85 47.55 66.85V74.85C54.0838 74.85 58.6749 78.0879 61.8546 83.8909C65.1521 89.9087 66.8 98.5621 66.8 108.5H74.8ZM47.55 66.85C37.5246 66.85 30.4492 72.1457 26.1024 80.0392C21.8767 87.7127 20.15 97.8887 20.15 108.5H28.15C28.15 98.5613 29.7983 89.9123 33.1101 83.8983C36.3008 78.1043 40.9254 74.85 47.55 74.85V66.85ZM20.15 108.5C20.15 119.253 21.8743 129.47 26.1024 137.148C30.4563 145.055 37.5375 150.3 47.55 150.3V142.3C40.9125 142.3 36.2937 139.07 33.1101 133.289C29.8007 127.28 28.15 118.597 28.15 108.5H20.15ZM100.022 125.9V121.9H96.0494L96.022 125.872L100.022 125.9ZM118.022 125.9L122.022 125.858L121.98 121.9H118.022V125.9ZM131.522 113.15H127.522V117.15H131.522V113.15ZM131.522 99.05V95.05H127.522V99.05H131.522ZM121.322 89.75V93.75H125.28L125.322 89.7925L121.322 89.75ZM103.472 89.75H99.4719V93.75H103.472V89.75ZM156.572 104.9L155.554 101.032L156.067 108.868L156.572 104.9ZM138.122 158.5C125.744 158.5 117.343 155.014 112.038 149.566C106.714 144.099 103.952 136.087 104.022 125.928L96.022 125.872C95.942 137.463 99.1044 147.751 106.306 155.147C113.526 162.561 124.25 166.5 138.122 166.5V158.5ZM100.022 129.9H118.022V121.9H100.022V129.9ZM114.022 125.942C114.107 134.067 116.859 140.308 121.674 144.456C126.396 148.523 132.606 150.15 138.872 150.15V142.15C133.888 142.15 129.748 140.852 126.895 138.394C124.135 136.017 122.087 132.133 122.022 125.858L114.022 125.942ZM138.872 150.15C144.631 150.15 150.586 148.742 155.218 145.4C160.003 141.948 163.122 136.592 163.122 129.5H155.122C155.122 133.958 153.29 136.927 150.538 138.912C147.632 141.008 143.463 142.15 138.872 142.15V150.15ZM163.122 129.5C163.122 123.691 161.033 118.376 156.364 114.611C151.818 110.946 145.321 109.15 137.222 109.15V117.15C144.273 117.15 148.726 118.729 151.342 120.839C153.836 122.849 155.122 125.709 155.122 129.5H163.122ZM137.222 109.15H131.522V117.15H137.222V109.15ZM135.522 113.15V99.05H127.522V113.15H135.522ZM131.522 103.05H136.322V95.05H131.522V103.05ZM136.322 103.05C144.971 103.05 150.911 100.864 154.648 97.0493C158.374 93.2464 159.222 88.5249 159.222 84.95H151.222C151.222 87.3751 150.645 89.7035 148.933 91.4507C147.233 93.1863 143.723 95.05 136.322 95.05V103.05ZM159.222 84.95C159.222 79.1471 156.915 74.5038 152.961 71.4116C149.136 68.4203 144.129 67.15 139.022 67.15V75.15C142.915 75.15 146.008 76.1297 148.033 77.7134C149.929 79.1962 151.222 81.4529 151.222 84.95H159.222ZM139.022 67.15C133.918 67.15 128.458 68.4218 124.211 72.1596C119.875 75.9749 117.406 81.8238 117.322 89.7074L125.322 89.7925C125.388 83.5762 127.269 80.1251 129.496 78.1654C131.811 76.1282 135.126 75.15 139.022 75.15V67.15ZM121.322 85.75H103.472V93.75H121.322V85.75ZM107.472 89.75C107.472 79.3264 110.431 71.7001 115.541 66.6691C120.659 61.6295 128.488 58.65 139.322 58.65V50.65C127.055 50.65 116.959 54.0455 109.928 60.9684C102.888 67.8998 99.4719 77.8236 99.4719 89.75H107.472ZM139.322 58.65C149.393 58.65 157.053 61.2566 162.108 65.323C167.085 69.3259 169.822 74.9557 169.822 81.8H177.822C177.822 72.5943 174.034 64.6491 167.123 59.0895C160.29 53.5934 150.701 50.65 139.322 50.65V58.65ZM169.822 81.8C169.822 93.0286 162.659 99.1619 155.554 101.032L157.59 108.768C167.584 106.138 177.822 97.2714 177.822 81.8H169.822ZM156.067 108.868C159.473 109.302 164.188 111.023 167.988 114.505C171.676 117.885 174.622 123.016 174.622 130.7H182.622C182.622 120.684 178.667 113.44 173.393 108.607C168.231 103.877 161.92 101.548 157.077 100.932L156.067 108.868ZM174.622 130.7C174.622 138.702 171.28 145.51 165.201 150.403C159.058 155.347 149.886 158.5 138.122 158.5V166.5C151.257 166.5 162.336 162.978 170.217 156.635C178.164 150.24 182.622 141.148 182.622 130.7H174.622Z" fill="#50A0DF" mask="url(#path-2-outside-1_155_3583)"/>
<path d="M54 285C261.089 269.529 380.06 271.161 595 285" stroke="#50A0DF" stroke-width="6" stroke-linecap="round" stroke-linejoin="round"/>
</svg>
