<svg width="148" height="144" viewBox="0 0 148 144" fill="none" xmlns="http://www.w3.org/2000/svg">
<circle cx="99.5" cy="95.5" r="48.5" fill="#FEBD37"/>
<mask id="path-2-outside-1_248_3926" maskUnits="userSpaceOnUse" x="1" y="34" width="121" height="76" fill="black">
<rect fill="white" x="1" y="34" width="121" height="76"/>
<path d="M31.7 108C17.6 108 3.9 98 3.9 72C3.9 46.2 17.6 36.1 31.7 36.1C45.8 36.1 59.5 46.2 59.5 72C59.5 98 45.8 108 31.7 108ZM31.7 97.2C42.7 97.2 47.2 85.9 47.2 72C47.2 58.3 42.7 46.9 31.7 46.9C20.6 46.9 16.1 58.3 16.1 72C16.1 85.9 20.6 97.2 31.7 97.2ZM92.0813 108C74.5813 108 66.5812 98.1 66.6813 83.6H78.6813C78.7813 93.2 85.0813 97.1 92.5813 97.1C99.4813 97.1 106.081 93.7 106.081 86C106.081 79.6 101.581 75.1 91.4813 75.1H87.6813V65.7H90.8813C101.581 65.7 103.481 60.3 103.481 56.3C103.481 50.1 98.6813 47.1 92.6812 47.1C86.6813 47.1 80.9813 50.1 80.8813 59.5H68.9813C68.9813 44.6 77.4813 36.1 92.8813 36.1C107.181 36.1 115.881 43.5 115.881 54.2C115.881 63.1 110.081 68.1 104.381 69.6C109.881 70.3 119.081 75 119.081 86.8C119.081 99.1 108.681 108 92.0813 108Z"/>
</mask>
<path d="M31.7 106C25.1313 106 18.7524 103.681 13.9975 98.4103C9.23171 93.1277 5.9 84.6587 5.9 72H1.9C1.9 85.3413 5.41829 94.8723 11.0275 101.09C16.6476 107.319 24.1687 110 31.7 110V106ZM5.9 72C5.9 59.4452 9.22969 50.9995 13.9975 45.7147C18.7554 40.4409 25.1363 38.1 31.7 38.1V34.1C24.1637 34.1 16.6446 36.8091 11.0275 43.0353C5.42031 49.2505 1.9 58.7548 1.9 72H5.9ZM31.7 38.1C38.2637 38.1 44.6446 40.4409 49.4025 45.7147C54.1703 50.9995 57.5 59.4452 57.5 72H61.5C61.5 58.7548 57.9797 49.2505 52.3725 43.0353C46.7554 36.8091 39.2363 34.1 31.7 34.1V38.1ZM57.5 72C57.5 84.6587 54.1683 93.1277 49.4025 98.4103C44.6476 103.681 38.2687 106 31.7 106V110C39.2313 110 46.7524 107.319 52.3725 101.09C57.9817 94.8723 61.5 85.3413 61.5 72H57.5ZM31.7 99.2C38.0517 99.2 42.5403 95.8629 45.329 90.7736C48.0565 85.7959 49.2 79.1146 49.2 72H45.2C45.2 78.7854 44.0936 84.7041 41.8211 88.8514C39.6097 92.8871 36.3483 95.2 31.7 95.2V99.2ZM49.2 72C49.2 64.9814 48.0552 58.3269 45.329 53.3514C42.5438 48.2686 38.0581 44.9 31.7 44.9V48.9C36.3419 48.9 39.6062 51.2314 41.8211 55.2736C44.0948 59.4231 45.2 65.3185 45.2 72H49.2ZM31.7 44.9C25.2998 44.9 20.7871 48.2604 17.9856 53.3477C15.2446 58.3251 14.1 64.9818 14.1 72H18.1C18.1 65.3182 19.2054 59.4249 21.4894 55.2773C23.7129 51.2396 27.0002 48.9 31.7 48.9V44.9ZM14.1 72C14.1 79.1142 15.2434 85.7977 17.9856 90.7773C20.7907 95.8711 25.3062 99.2 31.7 99.2V95.2C26.9938 95.2 23.7093 92.8789 21.4894 88.8477C19.2066 84.7023 18.1 78.7858 18.1 72H14.1ZM66.6813 83.6V81.6H64.695L64.6813 83.5862L66.6813 83.6ZM78.6813 83.6L80.6811 83.5792L80.6605 81.6H78.6813V83.6ZM87.6813 75.1H85.6813V77.1H87.6813V75.1ZM87.6813 65.7V63.7H85.6813V65.7H87.6813ZM80.8813 59.5V61.5H82.8601L82.8811 59.5213L80.8813 59.5ZM68.9813 59.5H66.9813V61.5H68.9813V59.5ZM104.381 69.6L103.872 67.6658L104.129 71.584L104.381 69.6ZM92.0813 106C83.7047 106 77.9107 103.638 74.2141 99.8422C70.5087 96.037 68.6337 90.5059 68.6812 83.6138L64.6813 83.5862C64.6288 91.1941 66.7038 97.863 71.3484 102.633C76.0018 107.412 82.9578 110 92.0813 110V106ZM66.6813 85.6H78.6813V81.6H66.6813V85.6ZM76.6814 83.6208C76.7362 88.8836 78.5122 92.8477 81.551 95.4653C84.5433 98.0429 88.5107 99.1 92.5813 99.1V95.1C89.1518 95.1 86.2192 94.2071 84.1615 92.4347C82.1503 90.7023 80.7263 87.9164 80.6811 83.5792L76.6814 83.6208ZM92.5813 99.1C96.3232 99.1 100.145 98.1834 103.089 96.0595C106.109 93.8804 108.081 90.5085 108.081 86H104.081C104.081 89.1915 102.753 91.3696 100.749 92.8155C98.6678 94.3166 95.7393 95.1 92.5813 95.1V99.1ZM108.081 86C108.081 82.2955 106.755 78.9565 103.824 76.593C100.954 74.2793 96.7933 73.1 91.4813 73.1V77.1C96.2692 77.1 99.4081 78.1707 101.313 79.707C103.157 81.1935 104.081 83.3045 104.081 86H108.081ZM91.4813 73.1H87.6813V77.1H91.4813V73.1ZM89.6813 75.1V65.7H85.6813V75.1H89.6813ZM87.6813 67.7H90.8813V63.7H87.6813V67.7ZM90.8813 67.7C96.5432 67.7 100.301 66.2693 102.622 63.8997C104.938 61.5357 105.481 58.5875 105.481 56.3H101.481C101.481 58.0125 101.074 59.7643 99.7651 61.1003C98.4618 62.4307 95.9193 63.7 90.8813 63.7V67.7ZM105.481 56.3C105.481 52.6235 104.028 49.7269 101.563 47.7996C99.1633 45.9226 95.9847 45.1 92.6812 45.1V49.1C95.3778 49.1 97.5992 49.7774 99.0992 50.9504C100.535 52.0731 101.481 53.7765 101.481 56.3H105.481ZM92.6812 45.1C89.3792 45.1 85.9181 45.9234 83.2475 48.2736C80.5329 50.6624 78.9358 54.3619 78.8814 59.4787L82.8811 59.5213C82.9267 55.2381 84.2296 52.7376 85.89 51.2764C87.5944 49.7766 89.9833 49.1 92.6812 49.1V45.1ZM80.8813 57.5H68.9813V61.5H80.8813V57.5ZM70.9813 59.5C70.9813 52.4257 72.992 47.1501 76.5594 43.6377C80.1312 40.121 85.5395 38.1 92.8813 38.1V34.1C84.823 34.1 78.2813 36.329 73.7531 40.7873C69.2205 45.2499 66.9813 51.6743 66.9813 59.5H70.9813ZM92.8813 38.1C99.7044 38.1 104.972 39.8658 108.49 42.6959C111.969 45.4942 113.881 49.4403 113.881 54.2H117.881C117.881 48.2597 115.444 43.1558 110.997 39.5791C106.591 36.0342 100.358 34.1 92.8813 34.1V38.1ZM113.881 54.2C113.881 62.0393 108.85 66.3559 103.872 67.6658L104.89 71.5341C111.313 69.8441 117.881 64.1607 117.881 54.2H113.881ZM104.129 71.584C106.52 71.8883 109.796 73.0866 112.443 75.5121C115.033 77.8861 117.081 81.4831 117.081 86.8H121.081C121.081 80.3169 118.529 75.6639 115.145 72.5629C111.817 69.5134 107.743 68.0117 104.634 67.616L104.129 71.584ZM117.081 86.8C117.081 92.3383 114.76 97.0677 110.552 100.454C106.312 103.867 100.038 106 92.0813 106V110C100.724 110 107.951 107.683 113.06 103.571C118.202 99.4323 121.081 93.5617 121.081 86.8H117.081Z" fill="#50A0DF" mask="url(#path-2-outside-1_248_3926)"/>
</svg>
