<svg width="239" height="482" viewBox="0 0 239 482" fill="none" xmlns="http://www.w3.org/2000/svg">
<path fill-rule="evenodd" clip-rule="evenodd" d="M239 0C107.004 0 0 107.898 0 241C0 374.102 107.004 482 239 482V0Z" fill="#FEBD37"/>
<path d="M130.6 330.662C130.6 341.222 125.26 346.742 117.76 346.742L117.76 341.762C122.56 341.462 126.34 338.162 126.34 330.602C126.34 323.702 123.16 320.282 118.42 320.282C113.74 320.282 111.82 323.642 110.86 328.562L109.72 334.142C108.28 341.462 104.74 345.542 98.68 345.542C91.84 345.542 87.46 340.382 87.46 330.962C87.46 321.662 91.84 316.382 98.68 316.382L98.68 321.302C94.66 321.482 91.66 324.602 91.66 331.022C91.66 337.682 94.78 340.382 98.68 340.382C102.1 340.382 104.62 338.282 105.7 332.762L106.78 327.362C108.34 319.682 111.52 315.122 118.36 315.122C126.16 315.122 130.6 321.062 130.6 330.662ZM130 298.845L88 298.845L88 272.145L92.38 272.145L92.38 293.925L106.42 293.925L106.42 273.945L110.44 273.945L110.44 293.925L125.62 293.925L125.62 271.545L130 271.545L130 298.845ZM130 258.05L88 242.03L88 235.91L130 219.89L130 225.11L119.5 229.01L119.5 248.93L130 252.83L130 258.05ZM115.66 247.49L115.66 230.45L93.34 238.79L93.34 239.15L115.66 247.49ZM130 199.368L92.44 199.368L92.44 212.628L88 212.628L88 181.188L92.44 181.188L92.44 194.448L130 194.448L130 199.368ZM130.6 151.815C130.6 162.375 125.26 167.895 117.76 167.895L117.76 162.915C122.56 162.615 126.34 159.315 126.34 151.755C126.34 144.855 123.16 141.435 118.42 141.435C113.74 141.435 111.82 144.795 110.86 149.715L109.72 155.295C108.28 162.615 104.74 166.695 98.68 166.695C91.84 166.695 87.46 161.535 87.46 152.115C87.46 142.815 91.84 137.535 98.68 137.535L98.68 142.455C94.66 142.635 91.66 145.755 91.66 152.175C91.66 158.835 94.78 161.535 98.68 161.535C102.1 161.535 104.62 159.435 105.7 153.915L106.78 148.515C108.34 140.835 111.52 136.275 118.36 136.275C126.16 136.275 130.6 142.215 130.6 151.815Z" fill="#50A0DF"/>
</svg>
