<svg width="253" height="127" viewBox="0 0 253 127" fill="none" xmlns="http://www.w3.org/2000/svg">
<path fill-rule="evenodd" clip-rule="evenodd" d="M0 0C0.0002309 69.8638 56.6361 126.5 126.5 126.5C196.364 126.5 253 69.8638 253 0H0Z" fill="#FEBD37"/>
<mask id="path-2-outside-1_248_3934" maskUnits="userSpaceOnUse" x="50" y="23" width="145" height="55" fill="black">
<rect fill="white" x="50" y="23" width="145" height="55"/>
<path d="M52.8 72.76C52.8 64.01 55.67 58.06 65.96 52.04C72.68 48.05 77.72 45.74 77.79 40.07C77.86 34.89 74.01 33 70.09 33C65.82 33 62.11 35.38 62.11 41.4V42.38H53.43V40.98C53.43 32.23 58.61 25.37 70.16 25.37C80.94 25.37 86.75 31.25 86.75 39.51C86.75 48.82 79.54 52.74 73.31 56.31C66.17 60.51 63.02 63.45 63.02 67.23V67.58H86.68V75H52.8V72.76ZM115.544 75.7C105.674 75.7 96.0835 68.7 96.0835 50.5C96.0835 32.44 105.674 25.37 115.544 25.37C125.414 25.37 135.004 32.44 135.004 50.5C135.004 68.7 125.414 75.7 115.544 75.7ZM115.544 68.14C123.244 68.14 126.394 60.23 126.394 50.5C126.394 40.91 123.244 32.93 115.544 32.93C107.774 32.93 104.624 40.91 104.624 50.5C104.624 60.23 107.774 68.14 115.544 68.14ZM153.689 37.13C151.239 39.72 147.389 40.77 143.539 40.84V33.49C148.719 32.93 152.289 30.55 153.689 26H162.649V75H153.689V37.13ZM183.78 37.13C181.33 39.72 177.48 40.77 173.63 40.84V33.49C178.81 32.93 182.38 30.55 183.78 26H192.74V75H183.78V37.13Z"/>
</mask>
<path d="M65.96 52.04L66.97 53.7663L66.9811 53.7597L65.96 52.04ZM77.79 40.07L75.7902 40.043L75.7902 40.0453L77.79 40.07ZM62.11 42.38V44.38H64.11V42.38H62.11ZM53.43 42.38H51.43V44.38H53.43V42.38ZM73.31 56.31L72.3156 54.5747L72.3058 54.5804L72.296 54.5861L73.31 56.31ZM63.02 67.58H61.02V69.58H63.02V67.58ZM86.68 67.58H88.68V65.58H86.68V67.58ZM86.68 75V77H88.68V75H86.68ZM52.8 75H50.8V77H52.8V75ZM54.8 72.76C54.8 68.6099 55.4789 65.329 57.2354 62.4066C59.0051 59.4622 61.9903 56.6795 66.9699 53.7663L64.9501 50.3137C59.6397 53.4205 56.0449 56.6228 53.8071 60.3459C51.5561 64.091 50.8 68.1601 50.8 72.76H54.8ZM66.9811 53.7597C70.2043 51.8459 73.3841 50.1388 75.6609 48.2115C78.071 46.1714 79.7457 43.6714 79.7898 40.0947L75.7902 40.0453C75.7643 42.1386 74.884 43.6286 73.0766 45.1585C71.1359 46.8012 68.4357 48.2441 64.9389 50.3203L66.9811 53.7597ZM79.7898 40.097C79.8324 36.9449 78.6512 34.5553 76.6621 33.0122C74.7573 31.5345 72.3304 31 70.09 31V35C71.7696 35 73.2277 35.4105 74.2104 36.1727C75.1088 36.8697 75.8176 38.0151 75.7902 40.043L79.7898 40.097ZM70.09 31C67.6038 31 65.0714 31.6939 63.1429 33.4722C61.1831 35.2794 60.11 37.9635 60.11 41.4H64.11C64.11 38.8165 64.8919 37.3005 65.8546 36.4128C66.8486 35.4961 68.3062 35 70.09 35V31ZM60.11 41.4V42.38H64.11V41.4H60.11ZM62.11 40.38H53.43V44.38H62.11V40.38ZM55.43 42.38V40.98H51.43V42.38H55.43ZM55.43 40.98C55.43 36.9906 56.6062 33.638 58.8957 31.29C61.1721 28.9555 64.7872 27.37 70.16 27.37V23.37C63.9828 23.37 59.2329 25.2145 56.0318 28.4975C52.8438 31.767 51.43 36.2194 51.43 40.98H55.43ZM70.16 27.37C75.1968 27.37 78.8229 28.7407 81.1647 30.8337C83.4848 32.9073 84.75 35.8706 84.75 39.51H88.75C88.75 34.8894 87.1102 30.7827 83.8303 27.8513C80.5721 24.9393 75.9032 23.37 70.16 23.37V27.37ZM84.75 39.51C84.75 47.492 78.7605 50.8816 72.3156 54.5747L74.3044 58.0453C80.3195 54.5984 88.75 50.148 88.75 39.51H84.75ZM72.296 54.5861C68.7004 56.7012 65.93 58.5982 64.0517 60.5352C62.1189 62.5284 61.02 64.6823 61.02 67.23H65.02C65.02 65.9977 65.4961 64.7916 66.9233 63.3198C68.405 61.7918 70.7796 60.1188 74.324 58.0339L72.296 54.5861ZM61.02 67.23V67.58H65.02V67.23H61.02ZM63.02 69.58H86.68V65.58H63.02V69.58ZM84.68 67.58V75H88.68V67.58H84.68ZM86.68 73H52.8V77H86.68V73ZM54.8 75V72.76H50.8V75H54.8ZM115.544 73.7C111.09 73.7 106.796 72.1308 103.597 68.5853C100.388 65.0277 98.0835 59.2587 98.0835 50.5H94.0835C94.0835 59.9413 96.5743 66.7723 100.627 71.2647C104.691 75.7692 110.127 77.7 115.544 77.7V73.7ZM98.0835 50.5C98.0835 41.8152 100.386 36.062 103.597 32.5022C106.799 28.9534 111.095 27.37 115.544 27.37V23.37C110.122 23.37 104.688 25.3216 100.627 29.8228C96.5763 34.313 94.0835 41.1248 94.0835 50.5H98.0835ZM115.544 27.37C119.992 27.37 124.288 28.9534 127.49 32.5022C130.701 36.062 133.004 41.8152 133.004 50.5H137.004C137.004 41.1248 134.511 34.313 130.46 29.8228C126.399 25.3216 120.965 23.37 115.544 23.37V27.37ZM133.004 50.5C133.004 59.2587 130.699 65.0277 127.49 68.5853C124.291 72.1308 119.997 73.7 115.544 73.7V77.7C120.96 77.7 126.396 75.7692 130.46 71.2647C134.513 66.7723 137.004 59.9413 137.004 50.5H133.004ZM115.544 70.14C120.245 70.14 123.571 67.6504 125.61 63.9298C127.587 60.3209 128.394 55.5296 128.394 50.5H124.394C124.394 55.2004 123.625 59.2291 122.102 62.0077C120.641 64.6746 118.542 66.14 115.544 66.14V70.14ZM128.394 50.5C128.394 45.5364 127.586 40.7644 125.61 37.1577C123.575 33.4436 120.252 30.93 115.544 30.93V34.93C118.535 34.93 120.637 36.4064 122.102 39.0798C123.626 41.8606 124.394 45.8735 124.394 50.5H128.394ZM115.544 30.93C110.808 30.93 107.466 33.4354 105.418 37.154C103.431 40.7626 102.624 45.5368 102.624 50.5H106.624C106.624 45.8732 107.391 41.8624 108.922 39.0835C110.391 36.4146 112.509 34.93 115.544 34.93V30.93ZM102.624 50.5C102.624 55.5292 103.429 60.3227 105.418 63.9335C107.469 67.6586 110.815 70.14 115.544 70.14V66.14C112.502 66.14 110.388 64.6664 108.922 62.004C107.393 59.2273 106.624 55.2008 106.624 50.5H102.624ZM153.689 37.13H155.689V32.1054L152.236 35.7556L153.689 37.13ZM143.539 40.84H141.539V42.8767L143.575 42.8397L143.539 40.84ZM143.539 33.49L143.324 31.5016L141.539 31.6946V33.49H143.539ZM153.689 26V24H152.211L151.777 25.4118L153.689 26ZM162.649 26H164.649V24H162.649V26ZM162.649 75V77H164.649V75H162.649ZM153.689 75H151.689V77H153.689V75ZM152.236 35.7556C150.311 37.7902 147.096 38.775 143.502 38.8403L143.575 42.8397C147.681 42.765 152.166 41.6498 155.142 38.5044L152.236 35.7556ZM145.539 40.84V33.49H141.539V40.84H145.539ZM143.754 35.4784C146.586 35.1721 149.131 34.3525 151.199 32.8648C153.291 31.3595 154.781 29.2519 155.6 26.5882L151.777 25.4118C151.197 27.2981 150.201 28.6555 148.863 29.6177C147.501 30.5975 145.671 31.2478 143.324 31.5016L143.754 35.4784ZM153.689 28H162.649V24H153.689V28ZM160.649 26V75H164.649V26H160.649ZM162.649 73H153.689V77H162.649V73ZM155.689 75V37.13H151.689V75H155.689ZM183.78 37.13H185.78V32.1054L182.327 35.7556L183.78 37.13ZM173.63 40.84H171.63V42.8767L173.667 42.8397L173.63 40.84ZM173.63 33.49L173.415 31.5016L171.63 31.6946V33.49H173.63ZM183.78 26V24H182.303L181.869 25.4118L183.78 26ZM192.74 26H194.74V24H192.74V26ZM192.74 75V77H194.74V75H192.74ZM183.78 75H181.78V77H183.78V75ZM182.327 35.7556C180.403 37.7902 177.188 38.775 173.594 38.8403L173.667 42.8397C177.773 42.765 182.258 41.6498 185.233 38.5044L182.327 35.7556ZM175.63 40.84V33.49H171.63V40.84H175.63ZM173.845 35.4784C176.678 35.1721 179.223 34.3525 181.291 32.8648C183.383 31.3595 184.872 29.2519 185.692 26.5882L181.869 25.4118C181.288 27.2981 180.293 28.6555 178.955 29.6177C177.593 30.5975 175.763 31.2478 173.415 31.5016L173.845 35.4784ZM183.78 28H192.74V24H183.78V28ZM190.74 26V75H194.74V26H190.74ZM192.74 73H183.78V77H192.74V73ZM185.78 75V37.13H181.78V75H185.78Z" fill="#50A0DF" mask="url(#path-2-outside-1_248_3934)"/>
</svg>
