<svg width="239" height="482" viewBox="0 0 239 482" fill="none" xmlns="http://www.w3.org/2000/svg">
<path fill-rule="evenodd" clip-rule="evenodd" d="M0 482C131.996 482 239 374.102 239 241C239 107.898 131.996 0 0 0V482Z" fill="#FEBD37"/>
<path d="M141.6 345.543C141.6 354.783 135.9 360.003 128.28 360.063L128.28 355.683C133.98 355.503 137.58 351.363 137.58 345.543C137.58 339.843 134.1 335.343 126.96 335.343C119.82 335.343 116.28 339.843 116.28 345.423C116.28 349.203 117.84 352.503 120.9 354.423L120.9 359.163L99 355.683L99 334.203L103.08 334.203L103.08 352.263L116.88 354.543C114.72 352.923 112.5 349.443 112.5 344.343C112.5 336.543 117.78 330.603 126.96 330.603C136.08 330.603 141.6 336.483 141.6 345.543ZM141.6 299.627C141.6 308.687 134.46 315.827 120 315.827C105.6 315.827 98.46 308.687 98.46 299.627C98.46 290.567 105.6 283.427 120 283.427C134.46 283.427 141.6 290.567 141.6 299.627ZM137.46 299.627C137.46 292.307 130.74 288.047 120 288.047C109.38 288.047 102.54 292.307 102.54 299.627C102.54 306.947 109.38 311.267 120 311.267C130.74 311.267 137.46 306.947 137.46 299.627ZM141.6 265.939C141.6 267.799 140.1 269.299 138.24 269.299C136.38 269.299 134.88 267.799 134.88 265.939C134.88 264.079 136.38 262.519 138.24 262.519C140.1 262.519 141.6 264.079 141.6 265.939ZM141.6 232.177C141.6 241.237 134.46 248.377 120 248.377C105.6 248.377 98.46 241.237 98.46 232.177C98.46 223.117 105.6 215.977 120 215.977C134.46 215.977 141.6 223.117 141.6 232.177ZM137.46 232.177C137.46 224.857 130.74 220.597 120 220.597C109.38 220.597 102.54 224.857 102.54 232.177C102.54 239.497 109.38 243.817 120 243.817C130.74 243.817 137.46 239.497 137.46 232.177ZM141.6 184.477C141.6 193.537 134.46 200.677 120 200.677C105.6 200.677 98.46 193.537 98.46 184.477C98.46 175.417 105.6 168.277 120 168.277C134.46 168.277 141.6 175.417 141.6 184.477ZM137.46 184.477C137.46 177.157 130.74 172.897 120 172.897C109.38 172.897 102.54 177.157 102.54 184.477C102.54 191.797 109.38 196.117 120 196.117C130.74 196.117 137.46 191.797 137.46 184.477ZM141.6 136.777C141.6 145.837 134.46 152.977 120 152.977C105.6 152.977 98.46 145.837 98.46 136.777C98.46 127.717 105.6 120.577 120 120.577C134.46 120.577 141.6 127.717 141.6 136.777ZM137.46 136.777C137.46 129.457 130.74 125.197 120 125.197C109.38 125.197 102.54 129.457 102.54 136.777C102.54 144.097 109.38 148.417 120 148.417C130.74 148.417 137.46 144.097 137.46 136.777Z" fill="#50A0DF"/>
</svg>
