<svg width="148" height="144" viewBox="0 0 148 144" fill="none" xmlns="http://www.w3.org/2000/svg">
<circle cx="99.5" cy="95.5" r="48.5" fill="#FEBD37"/>
<mask id="path-2-outside-1_210_3669" maskUnits="userSpaceOnUse" x="1" y="34" width="95" height="76" fill="black">
<rect fill="white" x="1" y="34" width="95" height="76"/>
<path d="M31.7 108C17.6 108 3.9 98 3.9 72C3.9 46.2 17.6 36.1 31.7 36.1C45.8 36.1 59.5 46.2 59.5 72C59.5 98 45.8 108 31.7 108ZM31.7 97.2C42.7 97.2 47.2 85.9 47.2 72C47.2 58.3 42.7 46.9 31.7 46.9C20.6 46.9 16.1 58.3 16.1 72C16.1 85.9 20.6 97.2 31.7 97.2ZM81.193 52.9C77.693 56.6 72.193 58.1 66.693 58.2V47.7C74.093 46.9 79.193 43.5 81.193 37H93.993V107H81.193V52.9Z"/>
</mask>
<path d="M31.7 106C25.1313 106 18.7524 103.681 13.9975 98.4103C9.23171 93.1277 5.9 84.6587 5.9 72H1.9C1.9 85.3413 5.41829 94.8723 11.0275 101.09C16.6476 107.319 24.1687 110 31.7 110V106ZM5.9 72C5.9 59.4452 9.22969 50.9995 13.9975 45.7147C18.7554 40.4409 25.1363 38.1 31.7 38.1V34.1C24.1637 34.1 16.6446 36.8091 11.0275 43.0353C5.42031 49.2505 1.9 58.7548 1.9 72H5.9ZM31.7 38.1C38.2637 38.1 44.6446 40.4409 49.4025 45.7147C54.1703 50.9995 57.5 59.4452 57.5 72H61.5C61.5 58.7548 57.9797 49.2505 52.3725 43.0353C46.7554 36.8091 39.2363 34.1 31.7 34.1V38.1ZM57.5 72C57.5 84.6587 54.1683 93.1277 49.4025 98.4103C44.6476 103.681 38.2687 106 31.7 106V110C39.2313 110 46.7524 107.319 52.3725 101.09C57.9817 94.8723 61.5 85.3413 61.5 72H57.5ZM31.7 99.2C38.0517 99.2 42.5403 95.8629 45.329 90.7736C48.0565 85.7959 49.2 79.1146 49.2 72H45.2C45.2 78.7854 44.0936 84.7041 41.8211 88.8514C39.6097 92.8871 36.3483 95.2 31.7 95.2V99.2ZM49.2 72C49.2 64.9814 48.0552 58.3269 45.329 53.3514C42.5438 48.2686 38.0581 44.9 31.7 44.9V48.9C36.3419 48.9 39.6062 51.2314 41.8211 55.2736C44.0948 59.4231 45.2 65.3185 45.2 72H49.2ZM31.7 44.9C25.2998 44.9 20.7871 48.2604 17.9856 53.3477C15.2446 58.3251 14.1 64.9818 14.1 72H18.1C18.1 65.3182 19.2054 59.4249 21.4894 55.2773C23.7129 51.2396 27.0002 48.9 31.7 48.9V44.9ZM14.1 72C14.1 79.1142 15.2434 85.7977 17.9856 90.7773C20.7907 95.8711 25.3062 99.2 31.7 99.2V95.2C26.9938 95.2 23.7093 92.8789 21.4894 88.8477C19.2066 84.7023 18.1 78.7858 18.1 72H14.1ZM81.193 52.9H83.193V47.8754L79.74 51.5256L81.193 52.9ZM66.693 58.2H64.693V60.2367L66.7293 60.1997L66.693 58.2ZM66.693 47.7L66.478 45.7116L64.693 45.9046V47.7H66.693ZM81.193 37V35H79.7158L79.2814 36.4118L81.193 37ZM93.993 37H95.993V35H93.993V37ZM93.993 107V109H95.993V107H93.993ZM81.193 107H79.193V109H81.193V107ZM79.74 51.5256C76.7654 54.6702 71.9002 56.105 66.6566 56.2003L66.7293 60.1997C72.4858 60.095 78.6206 58.5298 82.6459 54.2744L79.74 51.5256ZM68.693 58.2V47.7H64.693V58.2H68.693ZM66.9079 49.6884C70.8509 49.2621 74.3329 48.1275 77.1359 46.111C79.9633 44.077 81.9849 41.2269 83.1045 37.5882L79.2814 36.4118C78.401 39.2731 76.8726 41.373 74.8 42.864C72.7031 44.3725 69.9351 45.3378 66.478 45.7116L66.9079 49.6884ZM81.193 39H93.993V35H81.193V39ZM91.993 37V107H95.993V37H91.993ZM93.993 105H81.193V109H93.993V105ZM83.193 107V52.9H79.193V107H83.193Z" fill="#50A0DF" mask="url(#path-2-outside-1_210_3669)"/>
</svg>
