<svg width="30" height="30" viewBox="0 0 30 30" fill="none" xmlns="http://www.w3.org/2000/svg">
<path d="M29.608 23.1744C29.608 26.4218 26.9511 29.0787 23.7037 29.0787H6.4336C3.1862 29.0787 0.529297 26.4218 0.529297 23.1744V5.9043C0.529297 2.65697 3.1862 0 6.4336 0H23.7037C26.9511 0 29.608 2.65697 29.608 5.9043V23.1744Z" fill="#F5EFE7"/>
<path d="M17.2436 13.09L24.2383 4.37207H22.2123L16.2309 11.8276L10.2489 4.37207H3.57031L12.8913 15.9896L5.89597 24.7082H7.922L13.904 17.252L19.8866 24.7082H26.5652L17.2436 13.09ZM6.86379 5.95237H9.49035L23.2711 23.1278H20.6446L6.86379 5.95237Z" fill="#50A0DF"/>
</svg>
