<svg width="375" height="205" viewBox="0 0 375 205" fill="none" xmlns="http://www.w3.org/2000/svg">
<path d="M100 158H142" stroke="#FEBD37" stroke-width="3" stroke-linecap="round"/>
<path d="M268 54H310" stroke="#FEBD37" stroke-width="3" stroke-linecap="round"/>
<mask id="path-3-outside-1_251_3940" maskUnits="userSpaceOnUse" x="13" y="12" width="306" height="34" fill="black">
<rect fill="white" x="13" y="12" width="306" height="34"/>
<path d="M15.32 43V15H18.6V40.08H32.96V43H15.32ZM40.57 43V15H43.85V43H40.57ZM64.5797 43.4C56.8997 43.4 51.8997 38.44 51.8997 29.04C51.8997 19.56 57.0597 14.64 64.5397 14.64C70.0197 14.64 74.0997 17.2 75.2197 22.2H71.9397C70.8997 19.12 68.2597 17.52 64.5397 17.52C58.6997 17.52 55.1797 21.52 55.1797 28.96C55.1797 36.44 58.7797 40.52 64.6197 40.52C69.5397 40.52 72.9397 37.64 72.9397 31.36H65.8997V28.64H76.1797V30.6C76.1797 39 71.8597 43.4 64.5797 43.4ZM102.43 43V30.64H87.6703V43H84.3903V15H87.6703V27.88H102.43V15H105.75V43H102.43ZM122.007 43V17.96H113.167V15H134.127V17.96H125.287V43H122.007ZM161.069 43L153.589 15H156.949L162.949 38.36H163.109L170.109 15H173.629L180.629 38.36H180.789L186.789 15H190.189L182.669 43H179.149L171.869 19.2L164.629 43H161.069ZM197.578 43V15H215.378V17.92H200.858V27.28H214.178V29.96H200.858V40.08H215.778V43H197.578ZM223.375 43V15H226.655V43H223.375ZM247.384 43.4C239.704 43.4 234.704 38.44 234.704 29.04C234.704 19.56 239.864 14.64 247.344 14.64C252.824 14.64 256.904 17.2 258.024 22.2H254.744C253.704 19.12 251.064 17.52 247.344 17.52C241.504 17.52 237.984 21.52 237.984 28.96C237.984 36.44 241.584 40.52 247.424 40.52C252.344 40.52 255.744 37.64 255.744 31.36H248.704V28.64H258.984V30.6C258.984 39 254.664 43.4 247.384 43.4ZM285.235 43V30.64H270.475V43H267.195V15H270.475V27.88H285.235V15H288.555V43H285.235ZM304.812 43V17.96H295.972V15H316.932V17.96H308.092V43H304.812Z"/>
</mask>
<path d="M15.32 43H13.32V45H15.32V43ZM15.32 15V13H13.32V15H15.32ZM18.6 15H20.6V13H18.6V15ZM18.6 40.08H16.6V42.08H18.6V40.08ZM32.96 40.08H34.96V38.08H32.96V40.08ZM32.96 43V45H34.96V43H32.96ZM17.32 43V15H13.32V43H17.32ZM15.32 17H18.6V13H15.32V17ZM16.6 15V40.08H20.6V15H16.6ZM18.6 42.08H32.96V38.08H18.6V42.08ZM30.96 40.08V43H34.96V40.08H30.96ZM32.96 41H15.32V45H32.96V41ZM40.57 43H38.57V45H40.57V43ZM40.57 15V13H38.57V15H40.57ZM43.85 15H45.85V13H43.85V15ZM43.85 43V45H45.85V43H43.85ZM42.57 43V15H38.57V43H42.57ZM40.57 17H43.85V13H40.57V17ZM41.85 15V43H45.85V15H41.85ZM43.85 41H40.57V45H43.85V41ZM75.2197 22.2V24.2H77.7173L77.1713 21.7628L75.2197 22.2ZM71.9397 22.2L70.0448 22.8398L70.5041 24.2H71.9397V22.2ZM72.9397 31.36H74.9397V29.36H72.9397V31.36ZM65.8997 31.36H63.8997V33.36H65.8997V31.36ZM65.8997 28.64V26.64H63.8997V28.64H65.8997ZM76.1797 28.64H78.1797V26.64H76.1797V28.64ZM64.5797 41.4C61.1835 41.4 58.5937 40.3165 56.8351 38.3948C55.0567 36.4514 53.8997 33.3997 53.8997 29.04H49.8997C49.8997 34.0803 51.2427 38.2086 53.8842 41.0952C56.5457 44.0035 60.2958 45.4 64.5797 45.4V41.4ZM53.8997 29.04C53.8997 24.6524 55.0903 21.5888 56.8856 19.6402C58.6649 17.7089 61.2513 16.64 64.5397 16.64V12.64C60.348 12.64 56.6145 14.0311 53.9438 16.9298C51.2891 19.8112 49.8997 23.9476 49.8997 29.04H53.8997ZM64.5397 16.64C66.9797 16.64 68.948 17.2102 70.3837 18.1945C71.7899 19.1586 72.8126 20.604 73.2681 22.6372L77.1713 21.7628C76.5068 18.796 74.9295 16.4613 72.6457 14.8955C70.3913 13.3498 67.5797 12.64 64.5397 12.64V16.64ZM75.2197 20.2H71.9397V24.2H75.2197V20.2ZM73.8346 21.5602C73.1755 19.6082 71.9744 18.0534 70.3053 17.0094C68.6595 15.98 66.6785 15.52 64.5397 15.52V19.52C66.1208 19.52 67.3198 19.86 68.1841 20.4006C69.0249 20.9266 69.6639 21.7118 70.0448 22.8398L73.8346 21.5602ZM64.5397 15.52C61.1316 15.52 58.1865 16.7083 56.1339 19.1688C54.1248 21.5772 53.1797 24.9542 53.1797 28.96H57.1797C57.1797 25.5258 57.9945 23.1828 59.2055 21.7312C60.3729 20.3317 62.1077 19.52 64.5397 19.52V15.52ZM53.1797 28.96C53.1797 32.9936 54.1485 36.3969 56.1736 38.8258C58.2401 41.3043 61.2006 42.52 64.6197 42.52V38.52C62.1988 38.52 60.4393 37.6957 59.2458 36.2642C58.0109 34.7831 57.1797 32.4064 57.1797 28.96H53.1797ZM64.6197 42.52C67.4659 42.52 70.1212 41.6796 72.0578 39.69C73.99 37.7051 74.9397 34.8507 74.9397 31.36H70.9397C70.9397 34.1493 70.1894 35.8749 69.1916 36.9C68.1982 37.9204 66.6935 38.52 64.6197 38.52V42.52ZM72.9397 29.36H65.8997V33.36H72.9397V29.36ZM67.8997 31.36V28.64H63.8997V31.36H67.8997ZM65.8997 30.64H76.1797V26.64H65.8997V30.64ZM74.1797 28.64V30.6H78.1797V28.64H74.1797ZM74.1797 30.6C74.1797 34.4769 73.1842 37.1252 71.6419 38.7915C70.1207 40.435 67.8109 41.4 64.5797 41.4V45.4C68.6285 45.4 72.1187 44.165 74.5775 41.5085C77.0152 38.8748 78.1797 35.1231 78.1797 30.6H74.1797ZM102.43 43H100.43V45H102.43V43ZM102.43 30.64H104.43V28.64H102.43V30.64ZM87.6703 30.64V28.64H85.6703V30.64H87.6703ZM87.6703 43V45H89.6703V43H87.6703ZM84.3903 43H82.3903V45H84.3903V43ZM84.3903 15V13H82.3903V15H84.3903ZM87.6703 15H89.6703V13H87.6703V15ZM87.6703 27.88H85.6703V29.88H87.6703V27.88ZM102.43 27.88V29.88H104.43V27.88H102.43ZM102.43 15V13H100.43V15H102.43ZM105.75 15H107.75V13H105.75V15ZM105.75 43V45H107.75V43H105.75ZM104.43 43V30.64H100.43V43H104.43ZM102.43 28.64H87.6703V32.64H102.43V28.64ZM85.6703 30.64V43H89.6703V30.64H85.6703ZM87.6703 41H84.3903V45H87.6703V41ZM86.3903 43V15H82.3903V43H86.3903ZM84.3903 17H87.6703V13H84.3903V17ZM85.6703 15V27.88H89.6703V15H85.6703ZM87.6703 29.88H102.43V25.88H87.6703V29.88ZM104.43 27.88V15H100.43V27.88H104.43ZM102.43 17H105.75V13H102.43V17ZM103.75 15V43H107.75V15H103.75ZM105.75 41H102.43V45H105.75V41ZM122.007 43H120.007V45H122.007V43ZM122.007 17.96H124.007V15.96H122.007V17.96ZM113.167 17.96H111.167V19.96H113.167V17.96ZM113.167 15V13H111.167V15H113.167ZM134.127 15H136.127V13H134.127V15ZM134.127 17.96V19.96H136.127V17.96H134.127ZM125.287 17.96V15.96H123.287V17.96H125.287ZM125.287 43V45H127.287V43H125.287ZM124.007 43V17.96H120.007V43H124.007ZM122.007 15.96H113.167V19.96H122.007V15.96ZM115.167 17.96V15H111.167V17.96H115.167ZM113.167 17H134.127V13H113.167V17ZM132.127 15V17.96H136.127V15H132.127ZM134.127 15.96H125.287V19.96H134.127V15.96ZM123.287 17.96V43H127.287V17.96H123.287ZM125.287 41H122.007V45H125.287V41ZM161.069 43L159.137 43.5162L159.533 45H161.069V43ZM153.589 15V13H150.984L151.657 15.5162L153.589 15ZM156.949 15L158.886 14.5024L158.5 13H156.949V15ZM162.949 38.36L161.012 38.8575L161.398 40.36H162.949V38.36ZM163.109 38.36V40.36H164.597L165.025 38.9341L163.109 38.36ZM170.109 15V13H168.62L168.193 14.4259L170.109 15ZM173.629 15L175.545 14.4259L175.117 13H173.629V15ZM180.629 38.36L178.713 38.9341L179.14 40.36H180.629V38.36ZM180.789 38.36V40.36H182.34L182.726 38.8575L180.789 38.36ZM186.789 15V13H185.238L184.852 14.5024L186.789 15ZM190.189 15L192.12 15.5188L192.797 13H190.189V15ZM182.669 43V45H184.202L184.6 43.5188L182.669 43ZM179.149 43L177.236 43.585L177.669 45H179.149V43ZM171.869 19.2L173.781 18.615L171.863 12.3453L169.955 18.6179L171.869 19.2ZM164.629 43V45H166.111L166.542 43.5821L164.629 43ZM163.001 42.4838L155.521 14.4838L151.657 15.5162L159.137 43.5162L163.001 42.4838ZM153.589 17H156.949V13H153.589V17ZM155.012 15.4975L161.012 38.8575L164.886 37.8625L158.886 14.5024L155.012 15.4975ZM162.949 40.36H163.109V36.36H162.949V40.36ZM165.025 38.9341L172.025 15.5741L168.193 14.4259L161.193 37.7859L165.025 38.9341ZM170.109 17H173.629V13H170.109V17ZM171.713 15.5741L178.713 38.9341L182.545 37.7859L175.545 14.4259L171.713 15.5741ZM180.629 40.36H180.789V36.36H180.629V40.36ZM182.726 38.8575L188.726 15.4975L184.852 14.5024L178.852 37.8625L182.726 38.8575ZM186.789 17H190.189V13H186.789V17ZM188.257 14.4812L180.737 42.4812L184.6 43.5188L192.12 15.5188L188.257 14.4812ZM182.669 41H179.149V45H182.669V41ZM181.061 42.415L173.781 18.615L169.956 19.785L177.236 43.585L181.061 42.415ZM169.955 18.6179L162.715 42.4179L166.542 43.5821L173.782 19.7821L169.955 18.6179ZM164.629 41H161.069V45H164.629V41ZM197.578 43H195.578V45H197.578V43ZM197.578 15V13H195.578V15H197.578ZM215.378 15H217.378V13H215.378V15ZM215.378 17.92V19.92H217.378V17.92H215.378ZM200.858 17.92V15.92H198.858V17.92H200.858ZM200.858 27.28H198.858V29.28H200.858V27.28ZM214.178 27.28H216.178V25.28H214.178V27.28ZM214.178 29.96V31.96H216.178V29.96H214.178ZM200.858 29.96V27.96H198.858V29.96H200.858ZM200.858 40.08H198.858V42.08H200.858V40.08ZM215.778 40.08H217.778V38.08H215.778V40.08ZM215.778 43V45H217.778V43H215.778ZM199.578 43V15H195.578V43H199.578ZM197.578 17H215.378V13H197.578V17ZM213.378 15V17.92H217.378V15H213.378ZM215.378 15.92H200.858V19.92H215.378V15.92ZM198.858 17.92V27.28H202.858V17.92H198.858ZM200.858 29.28H214.178V25.28H200.858V29.28ZM212.178 27.28V29.96H216.178V27.28H212.178ZM214.178 27.96H200.858V31.96H214.178V27.96ZM198.858 29.96V40.08H202.858V29.96H198.858ZM200.858 42.08H215.778V38.08H200.858V42.08ZM213.778 40.08V43H217.778V40.08H213.778ZM215.778 41H197.578V45H215.778V41ZM223.375 43H221.375V45H223.375V43ZM223.375 15V13H221.375V15H223.375ZM226.655 15H228.655V13H226.655V15ZM226.655 43V45H228.655V43H226.655ZM225.375 43V15H221.375V43H225.375ZM223.375 17H226.655V13H223.375V17ZM224.655 15V43H228.655V15H224.655ZM226.655 41H223.375V45H226.655V41ZM258.024 22.2V24.2H260.522L259.976 21.7628L258.024 22.2ZM254.744 22.2L252.849 22.8398L253.309 24.2H254.744V22.2ZM255.744 31.36H257.744V29.36H255.744V31.36ZM248.704 31.36H246.704V33.36H248.704V31.36ZM248.704 28.64V26.64H246.704V28.64H248.704ZM258.984 28.64H260.984V26.64H258.984V28.64ZM247.384 41.4C243.988 41.4 241.398 40.3165 239.64 38.3948C237.861 36.4514 236.704 33.3997 236.704 29.04H232.704C232.704 34.0803 234.047 38.2086 236.689 41.0952C239.35 44.0035 243.101 45.4 247.384 45.4V41.4ZM236.704 29.04C236.704 24.6524 237.895 21.5888 239.69 19.6402C241.47 17.7089 244.056 16.64 247.344 16.64V12.64C243.153 12.64 239.419 14.0311 236.748 16.9298C234.094 19.8112 232.704 23.9476 232.704 29.04H236.704ZM247.344 16.64C249.784 16.64 251.753 17.2102 253.188 18.1945C254.595 19.1586 255.617 20.604 256.073 22.6372L259.976 21.7628C259.311 18.796 257.734 16.4613 255.45 14.8955C253.196 13.3498 250.384 12.64 247.344 12.64V16.64ZM258.024 20.2H254.744V24.2H258.024V20.2ZM256.639 21.5602C255.98 19.6082 254.779 18.0534 253.11 17.0094C251.464 15.98 249.483 15.52 247.344 15.52V19.52C248.926 19.52 250.125 19.86 250.989 20.4006C251.83 20.9266 252.469 21.7118 252.849 22.8398L256.639 21.5602ZM247.344 15.52C243.936 15.52 240.991 16.7083 238.939 19.1688C236.93 21.5772 235.984 24.9542 235.984 28.96H239.984C239.984 25.5258 240.799 23.1828 242.01 21.7312C243.178 20.3317 244.912 19.52 247.344 19.52V15.52ZM235.984 28.96C235.984 32.9936 236.953 36.3969 238.978 38.8258C241.045 41.3043 244.005 42.52 247.424 42.52V38.52C245.003 38.52 243.244 37.6957 242.05 36.2642C240.816 34.7831 239.984 32.4064 239.984 28.96H235.984ZM247.424 42.52C250.271 42.52 252.926 41.6796 254.863 39.69C256.795 37.7051 257.744 34.8507 257.744 31.36H253.744C253.744 34.1493 252.994 35.8749 251.996 36.9C251.003 37.9204 249.498 38.52 247.424 38.52V42.52ZM255.744 29.36H248.704V33.36H255.744V29.36ZM250.704 31.36V28.64H246.704V31.36H250.704ZM248.704 30.64H258.984V26.64H248.704V30.64ZM256.984 28.64V30.6H260.984V28.64H256.984ZM256.984 30.6C256.984 34.4769 255.989 37.1252 254.447 38.7915C252.925 40.435 250.616 41.4 247.384 41.4V45.4C251.433 45.4 254.923 44.165 257.382 41.5085C259.82 38.8748 260.984 35.1231 260.984 30.6H256.984ZM285.235 43H283.235V45H285.235V43ZM285.235 30.64H287.235V28.64H285.235V30.64ZM270.475 30.64V28.64H268.475V30.64H270.475ZM270.475 43V45H272.475V43H270.475ZM267.195 43H265.195V45H267.195V43ZM267.195 15V13H265.195V15H267.195ZM270.475 15H272.475V13H270.475V15ZM270.475 27.88H268.475V29.88H270.475V27.88ZM285.235 27.88V29.88H287.235V27.88H285.235ZM285.235 15V13H283.235V15H285.235ZM288.555 15H290.555V13H288.555V15ZM288.555 43V45H290.555V43H288.555ZM287.235 43V30.64H283.235V43H287.235ZM285.235 28.64H270.475V32.64H285.235V28.64ZM268.475 30.64V43H272.475V30.64H268.475ZM270.475 41H267.195V45H270.475V41ZM269.195 43V15H265.195V43H269.195ZM267.195 17H270.475V13H267.195V17ZM268.475 15V27.88H272.475V15H268.475ZM270.475 29.88H285.235V25.88H270.475V29.88ZM287.235 27.88V15H283.235V27.88H287.235ZM285.235 17H288.555V13H285.235V17ZM286.555 15V43H290.555V15H286.555ZM288.555 41H285.235V45H288.555V41ZM304.812 43H302.812V45H304.812V43ZM304.812 17.96H306.812V15.96H304.812V17.96ZM295.972 17.96H293.972V19.96H295.972V17.96ZM295.972 15V13H293.972V15H295.972ZM316.932 15H318.932V13H316.932V15ZM316.932 17.96V19.96H318.932V17.96H316.932ZM308.092 17.96V15.96H306.092V17.96H308.092ZM308.092 43V45H310.092V43H308.092ZM306.812 43V17.96H302.812V43H306.812ZM304.812 15.96H295.972V19.96H304.812V15.96ZM297.972 17.96V15H293.972V17.96H297.972ZM295.972 17H316.932V13H295.972V17ZM314.932 15V17.96H318.932V15H314.932ZM316.932 15.96H308.092V19.96H316.932V15.96ZM306.092 17.96V43H310.092V17.96H306.092ZM308.092 41H304.812V45H308.092V41Z" fill="#FEBD37" mask="url(#path-3-outside-1_251_3940)"/>
<mask id="path-5-outside-2_251_3940" maskUnits="userSpaceOnUse" x="13" y="163" width="259" height="34" fill="black">
<rect fill="white" x="13" y="163" width="259" height="34"/>
<path d="M15.32 194V166H18.6V191.08H32.96V194H15.32ZM51.8688 194.4C44.5888 194.4 39.1888 189.28 39.1888 180C39.1888 170.72 44.5888 165.64 51.8688 165.64C59.1488 165.64 64.5888 170.72 64.5888 180C64.5888 189.28 59.1488 194.4 51.8688 194.4ZM51.8688 191.52C57.3088 191.52 61.2288 187.6 61.2288 180C61.2288 172.4 57.3088 168.52 51.8688 168.52C46.4688 168.52 42.5488 172.4 42.5488 180C42.5488 187.6 46.4688 191.52 51.8688 191.52ZM77.6469 194L70.1669 166H73.5269L79.5269 189.36H79.6869L86.6869 166H90.2069L97.2069 189.36H97.3669L103.367 166H106.767L99.2469 194H95.7269L88.4469 170.2L81.2069 194H77.6469ZM113.436 184.04V181.56H124.436V184.04H113.436ZM132.375 194V166H150.175V168.92H135.655V178.64H147.575V181.4H135.655V194H132.375ZM157.703 194V166H160.983V191.08H175.343V194H157.703ZM194.252 194.4C186.972 194.4 181.572 189.28 181.572 180C181.572 170.72 186.972 165.64 194.252 165.64C201.532 165.64 206.972 170.72 206.972 180C206.972 189.28 201.532 194.4 194.252 194.4ZM194.252 191.52C199.692 191.52 203.612 187.6 203.612 180C203.612 172.4 199.692 168.52 194.252 168.52C188.852 168.52 184.932 172.4 184.932 180C184.932 187.6 188.852 191.52 194.252 191.52ZM227.041 194.4C219.761 194.4 214.361 189.28 214.361 180C214.361 170.72 219.761 165.64 227.041 165.64C234.321 165.64 239.761 170.72 239.761 180C239.761 189.28 234.321 194.4 227.041 194.4ZM227.041 191.52C232.481 191.52 236.401 187.6 236.401 180C236.401 172.4 232.481 168.52 227.041 168.52C221.641 168.52 217.721 172.4 217.721 180C217.721 187.6 221.641 191.52 227.041 191.52ZM247.75 194V166H257.95C264.51 166 267.83 169.28 267.83 174.64C267.83 178.88 265.67 181.84 261.43 182.8L268.03 194H264.71L258.35 183.2H251.03V194H247.75ZM257.83 180.28C262.23 180.28 264.47 178.28 264.47 174.64C264.47 170.92 262.23 168.92 257.83 168.92H251.03V180.28H257.83Z"/>
</mask>
<path d="M15.32 194H13.32V196H15.32V194ZM15.32 166V164H13.32V166H15.32ZM18.6 166H20.6V164H18.6V166ZM18.6 191.08H16.6V193.08H18.6V191.08ZM32.96 191.08H34.96V189.08H32.96V191.08ZM32.96 194V196H34.96V194H32.96ZM17.32 194V166H13.32V194H17.32ZM15.32 168H18.6V164H15.32V168ZM16.6 166V191.08H20.6V166H16.6ZM18.6 193.08H32.96V189.08H18.6V193.08ZM30.96 191.08V194H34.96V191.08H30.96ZM32.96 192H15.32V196H32.96V192ZM51.8688 192.4C48.7139 192.4 46.1013 191.302 44.266 189.321C42.4211 187.329 41.1888 184.254 41.1888 180H37.1888C37.1888 185.026 38.6564 189.151 41.3315 192.039C44.0162 194.938 47.7436 196.4 51.8688 196.4V192.4ZM41.1888 180C41.1888 175.746 42.4208 172.683 44.2633 170.702C46.0966 168.731 48.7092 167.64 51.8688 167.64V163.64C47.7483 163.64 44.0209 165.089 41.3342 167.978C38.6567 170.857 37.1888 174.974 37.1888 180H41.1888ZM51.8688 167.64C55.029 167.64 57.6534 168.731 59.4972 170.705C61.349 172.688 62.5888 175.75 62.5888 180H66.5888C66.5888 174.97 65.1086 170.852 62.4203 167.975C59.7241 165.089 55.9885 163.64 51.8688 163.64V167.64ZM62.5888 180C62.5888 184.25 61.3487 187.325 59.4944 189.318C57.6486 191.302 55.0243 192.4 51.8688 192.4V196.4C55.9932 196.4 59.7289 194.938 62.4231 192.042C65.1088 189.155 66.5888 185.03 66.5888 180H62.5888ZM51.8688 193.52C55.0971 193.52 58.0192 192.339 60.105 189.914C62.1635 187.521 63.2288 184.127 63.2288 180H59.2288C59.2288 183.473 58.334 185.839 57.0725 187.306C55.8383 188.741 54.0804 189.52 51.8688 189.52V193.52ZM63.2288 180C63.2288 175.873 62.1634 172.487 60.1017 170.102C58.013 167.686 55.0906 166.52 51.8688 166.52V170.52C54.0869 170.52 55.8445 171.294 57.0758 172.718C58.3341 174.173 59.2288 176.527 59.2288 180H63.2288ZM51.8688 166.52C48.6626 166.52 45.7506 167.689 43.6689 170.104C41.6141 172.488 40.5488 175.873 40.5488 180H44.5488C44.5488 176.527 45.4434 174.172 46.6986 172.716C47.9269 171.291 49.6749 170.52 51.8688 170.52V166.52ZM40.5488 180C40.5488 184.127 41.614 187.52 43.6655 189.912C45.7444 192.336 48.6561 193.52 51.8688 193.52V189.52C49.6814 189.52 47.9331 188.744 46.702 187.308C45.4435 185.84 44.5488 183.473 44.5488 180H40.5488ZM77.6469 194L75.7146 194.516L76.111 196H77.6469V194ZM70.1669 166V164H67.5625L68.2346 166.516L70.1669 166ZM73.5269 166L75.464 165.502L75.0781 164H73.5269V166ZM79.5269 189.36L77.5898 189.858L77.9757 191.36H79.5269V189.36ZM79.6869 189.36V191.36H81.1754L81.6027 189.934L79.6869 189.36ZM86.6869 166V164H85.1983L84.771 165.426L86.6869 166ZM90.2069 166L92.1227 165.426L91.6954 164H90.2069V166ZM97.2069 189.36L95.291 189.934L95.7183 191.36H97.2069V189.36ZM97.3669 189.36V191.36H98.9181L99.304 189.858L97.3669 189.36ZM103.367 166V164H101.816L101.43 165.502L103.367 166ZM106.767 166L108.698 166.519L109.375 164H106.767V166ZM99.2469 194V196H100.781L101.178 194.519L99.2469 194ZM95.7269 194L93.8143 194.585L94.2472 196H95.7269V194ZM88.4469 170.2L90.3594 169.615L88.4416 163.345L86.5334 169.618L88.4469 170.2ZM81.2069 194V196H82.689L83.1203 194.582L81.2069 194ZM79.5791 193.484L72.0991 165.484L68.2346 166.516L75.7146 194.516L79.5791 193.484ZM70.1669 168H73.5269V164H70.1669V168ZM71.5898 166.498L77.5898 189.858L81.464 188.862L75.464 165.502L71.5898 166.498ZM79.5269 191.36H79.6869V187.36H79.5269V191.36ZM81.6027 189.934L88.6027 166.574L84.771 165.426L77.771 188.786L81.6027 189.934ZM86.6869 168H90.2069V164H86.6869V168ZM88.291 166.574L95.291 189.934L99.1227 188.786L92.1227 165.426L88.291 166.574ZM97.2069 191.36H97.3669V187.36H97.2069V191.36ZM99.304 189.858L105.304 166.498L101.43 165.502L95.4298 188.862L99.304 189.858ZM103.367 168H106.767V164H103.367V168ZM104.835 165.481L97.3153 193.481L101.178 194.519L108.698 166.519L104.835 165.481ZM99.2469 192H95.7269V196H99.2469V192ZM97.6394 193.415L90.3594 169.615L86.5343 170.785L93.8143 194.585L97.6394 193.415ZM86.5334 169.618L79.2935 193.418L83.1203 194.582L90.3603 170.782L86.5334 169.618ZM81.2069 192H77.6469V196H81.2069V192ZM113.436 184.04H111.436V186.04H113.436V184.04ZM113.436 181.56V179.56H111.436V181.56H113.436ZM124.436 181.56H126.436V179.56H124.436V181.56ZM124.436 184.04V186.04H126.436V184.04H124.436ZM115.436 184.04V181.56H111.436V184.04H115.436ZM113.436 183.56H124.436V179.56H113.436V183.56ZM122.436 181.56V184.04H126.436V181.56H122.436ZM124.436 182.04H113.436V186.04H124.436V182.04ZM132.375 194H130.375V196H132.375V194ZM132.375 166V164H130.375V166H132.375ZM150.175 166H152.175V164H150.175V166ZM150.175 168.92V170.92H152.175V168.92H150.175ZM135.655 168.92V166.92H133.655V168.92H135.655ZM135.655 178.64H133.655V180.64H135.655V178.64ZM147.575 178.64H149.575V176.64H147.575V178.64ZM147.575 181.4V183.4H149.575V181.4H147.575ZM135.655 181.4V179.4H133.655V181.4H135.655ZM135.655 194V196H137.655V194H135.655ZM134.375 194V166H130.375V194H134.375ZM132.375 168H150.175V164H132.375V168ZM148.175 166V168.92H152.175V166H148.175ZM150.175 166.92H135.655V170.92H150.175V166.92ZM133.655 168.92V178.64H137.655V168.92H133.655ZM135.655 180.64H147.575V176.64H135.655V180.64ZM145.575 178.64V181.4H149.575V178.64H145.575ZM147.575 179.4H135.655V183.4H147.575V179.4ZM133.655 181.4V194H137.655V181.4H133.655ZM135.655 192H132.375V196H135.655V192ZM157.703 194H155.703V196H157.703V194ZM157.703 166V164H155.703V166H157.703ZM160.983 166H162.983V164H160.983V166ZM160.983 191.08H158.983V193.08H160.983V191.08ZM175.343 191.08H177.343V189.08H175.343V191.08ZM175.343 194V196H177.343V194H175.343ZM159.703 194V166H155.703V194H159.703ZM157.703 168H160.983V164H157.703V168ZM158.983 166V191.08H162.983V166H158.983ZM160.983 193.08H175.343V189.08H160.983V193.08ZM173.343 191.08V194H177.343V191.08H173.343ZM175.343 192H157.703V196H175.343V192ZM194.252 192.4C191.097 192.4 188.484 191.302 186.649 189.321C184.804 187.329 183.572 184.254 183.572 180H179.572C179.572 185.026 181.039 189.151 183.714 192.039C186.399 194.938 190.126 196.4 194.252 196.4V192.4ZM183.572 180C183.572 175.746 184.804 172.683 186.646 170.702C188.479 168.731 191.092 167.64 194.252 167.64V163.64C190.131 163.64 186.404 165.089 183.717 167.978C181.039 170.857 179.572 174.974 179.572 180H183.572ZM194.252 167.64C197.412 167.64 200.036 168.731 201.88 170.705C203.732 172.688 204.972 175.75 204.972 180H208.972C208.972 174.97 207.491 170.852 204.803 167.975C202.107 165.089 198.371 163.64 194.252 163.64V167.64ZM204.972 180C204.972 184.25 203.732 187.325 201.877 189.318C200.031 191.302 197.407 192.4 194.252 192.4V196.4C198.376 196.4 202.112 194.938 204.806 192.042C207.492 189.155 208.972 185.03 208.972 180H204.972ZM194.252 193.52C197.48 193.52 200.402 192.339 202.488 189.914C204.546 187.521 205.612 184.127 205.612 180H201.612C201.612 183.473 200.717 185.839 199.455 187.306C198.221 188.741 196.463 189.52 194.252 189.52V193.52ZM205.612 180C205.612 175.873 204.546 172.487 202.485 170.102C200.396 167.686 197.473 166.52 194.252 166.52V170.52C196.47 170.52 198.227 171.294 199.459 172.718C200.717 174.173 201.612 176.527 201.612 180H205.612ZM194.252 166.52C191.045 166.52 188.133 167.689 186.052 170.104C183.997 172.488 182.932 175.873 182.932 180H186.932C186.932 176.527 187.826 174.172 189.081 172.716C190.31 171.291 192.058 170.52 194.252 170.52V166.52ZM182.932 180C182.932 184.127 183.997 187.52 186.048 189.912C188.127 192.336 191.039 193.52 194.252 193.52V189.52C192.064 189.52 190.316 188.744 189.085 187.308C187.826 185.84 186.932 183.473 186.932 180H182.932ZM227.041 192.4C223.886 192.4 221.273 191.302 219.438 189.321C217.593 187.329 216.361 184.254 216.361 180H212.361C212.361 185.026 213.828 189.151 216.503 192.039C219.188 194.938 222.915 196.4 227.041 196.4V192.4ZM216.361 180C216.361 175.746 217.593 172.683 219.435 170.702C221.268 168.731 223.881 167.64 227.041 167.64V163.64C222.92 163.64 219.193 165.089 216.506 167.978C213.829 170.857 212.361 174.974 212.361 180H216.361ZM227.041 167.64C230.201 167.64 232.825 168.731 234.669 170.705C236.521 172.688 237.761 175.75 237.761 180H241.761C241.761 174.97 240.28 170.852 237.592 167.975C234.896 165.089 231.16 163.64 227.041 163.64V167.64ZM237.761 180C237.761 184.25 236.521 187.325 234.666 189.318C232.821 191.302 230.196 192.4 227.041 192.4V196.4C231.165 196.4 234.901 194.938 237.595 192.042C240.281 189.155 241.761 185.03 241.761 180H237.761ZM227.041 193.52C230.269 193.52 233.191 192.339 235.277 189.914C237.335 187.521 238.401 184.127 238.401 180H234.401C234.401 183.473 233.506 185.839 232.244 187.306C231.01 188.741 229.252 189.52 227.041 189.52V193.52ZM238.401 180C238.401 175.873 237.335 172.487 235.274 170.102C233.185 167.686 230.263 166.52 227.041 166.52V170.52C229.259 170.52 231.016 171.294 232.248 172.718C233.506 174.173 234.401 176.527 234.401 180H238.401ZM227.041 166.52C223.834 166.52 220.922 167.689 218.841 170.104C216.786 172.488 215.721 175.873 215.721 180H219.721C219.721 176.527 220.615 174.172 221.871 172.716C223.099 171.291 224.847 170.52 227.041 170.52V166.52ZM215.721 180C215.721 184.127 216.786 187.52 218.837 189.912C220.916 192.336 223.828 193.52 227.041 193.52V189.52C224.853 189.52 223.105 188.744 221.874 187.308C220.615 185.84 219.721 183.473 219.721 180H215.721ZM247.75 194H245.75V196H247.75V194ZM247.75 166V164H245.75V166H247.75ZM261.43 182.8L260.988 180.849L258.315 181.455L259.707 183.815L261.43 182.8ZM268.03 194V196H271.53L269.753 192.985L268.03 194ZM264.71 194L262.986 195.015L263.566 196H264.71V194ZM258.35 183.2L260.073 182.185L259.493 181.2H258.35V183.2ZM251.03 183.2V181.2H249.03V183.2H251.03ZM251.03 194V196H253.03V194H251.03ZM251.03 168.92V166.92H249.03V168.92H251.03ZM251.03 180.28H249.03V182.28H251.03V180.28ZM249.75 194V166H245.75V194H249.75ZM247.75 168H257.95V164H247.75V168ZM257.95 168C260.92 168 262.844 168.742 264.009 169.794C265.144 170.819 265.83 172.383 265.83 174.64H269.83C269.83 171.537 268.855 168.781 266.69 166.826C264.555 164.898 261.54 164 257.95 164V168ZM265.83 174.64C265.83 176.42 265.38 177.763 264.635 178.73C263.897 179.689 262.736 180.454 260.988 180.849L261.871 184.751C264.363 184.186 266.403 182.991 267.805 181.17C269.2 179.357 269.83 177.1 269.83 174.64H265.83ZM259.707 183.815L266.307 195.015L269.753 192.985L263.153 181.785L259.707 183.815ZM268.03 192H264.71V196H268.03V192ZM266.433 192.985L260.073 182.185L256.626 184.215L262.986 195.015L266.433 192.985ZM258.35 181.2H251.03V185.2H258.35V181.2ZM249.03 183.2V194H253.03V183.2H249.03ZM251.03 192H247.75V196H251.03V192ZM257.83 182.28C260.296 182.28 262.497 181.724 264.104 180.341C265.763 178.914 266.47 176.885 266.47 174.64H262.47C262.47 176.035 262.057 176.826 261.495 177.309C260.882 177.836 259.764 178.28 257.83 178.28V182.28ZM266.47 174.64C266.47 172.368 265.771 170.318 264.112 168.876C262.502 167.476 260.295 166.92 257.83 166.92V170.92C259.764 170.92 260.877 171.364 261.487 171.894C262.049 172.382 262.47 173.192 262.47 174.64H266.47ZM257.83 166.92H251.03V170.92H257.83V166.92ZM249.03 168.92V180.28H253.03V168.92H249.03ZM251.03 182.28H257.83V178.28H251.03V182.28Z" fill="#FEBD37" mask="url(#path-5-outside-2_251_3940)"/>
<path d="M-5 76.5H55" stroke="#FEBD37" stroke-width="3" stroke-linecap="round"/>
<path d="M62 99H103" stroke="#FEBD37" stroke-width="3" stroke-linecap="round"/>
<path d="M177 69L213 69" stroke="#FEBD37" stroke-width="3" stroke-linecap="round"/>
<path d="M-49 125H25" stroke="#FEBD37" stroke-width="3" stroke-linecap="round"/>
<path d="M118 113H192" stroke="#FEBD37" stroke-width="3" stroke-linecap="round"/>
<path d="M197 136H253" stroke="#FEBD37" stroke-width="3" stroke-linecap="round"/>
<path d="M253 93L309 93" stroke="#FEBD37" stroke-width="3" stroke-linecap="round"/>
<path d="M321 69L390 69" stroke="#FEBD37" stroke-width="3" stroke-linecap="round"/>
<path d="M345 107L397 107" stroke="#FEBD37" stroke-width="3" stroke-linecap="round"/>
</svg>
