<svg width="428" height="183" viewBox="0 0 428 183" fill="none" xmlns="http://www.w3.org/2000/svg">
<circle cx="74" cy="109" r="74" fill="#FEBD37"/>
<path d="M377.869 43.8517C381.518 44.7561 383.644 45.0992 387.601 45.3186C381.325 55.7906 377.437 63.1392 375.417 70.7723C374.868 72.8465 375.628 73.2568 377.702 71.2192C389.248 59.8809 396.446 53.9785 411.9 45.0967C413.979 43.9018 413.609 42.2021 411.946 41.2662C408.725 39.7636 406.54 39.2491 402.649 38.9245C412.202 29.5663 420.316 20.0404 424.642 13.6438C427.592 8.89769 426.182 7.56652 418.535 7.12645C411.101 6.69868 406.978 6.7811 399.681 7.3661C395.128 7.73113 392.487 9.10065 389.721 13.359C382.961 24.457 377.731 34.2258 375.992 40.8668C375.558 42.527 376.026 43.3947 377.869 43.8517Z" stroke="#FEBD37" stroke-width="3" stroke-linecap="round" stroke-linejoin="round"/>
<path d="M348.05 50.1824C350.291 49.7308 351.55 49.3663 353.782 48.4577C353.056 55.8479 352.829 60.8996 353.704 65.6218C353.942 66.905 354.466 66.9331 355.077 65.2731C358.476 56.036 360.898 50.9187 367.085 42.0155C367.917 40.8177 367.271 39.9796 366.114 39.8974C363.952 39.9092 362.617 40.1945 360.393 41.0281C363.211 33.3981 365.195 26.0501 365.91 21.4078C366.297 18.0311 365.176 17.6658 360.857 19.413C356.658 21.1113 354.413 22.229 350.553 24.4486C348.144 25.8336 347.049 27.2734 346.635 30.3343C345.805 38.1946 345.47 44.926 346.242 49.0295C346.435 50.0553 346.918 50.4107 348.05 50.1824Z" stroke="#FEBD37" stroke-width="3" stroke-linecap="round" stroke-linejoin="round"/>
<path d="M121.5 163C224.889 151.142 284.673 149.237 395 155" stroke="#50A0DF" stroke-width="3" stroke-linecap="round"/>
</svg>
