<?xml version="1.0" encoding="UTF-8"?>
<svg id="Layer_1" data-name="Layer 1" xmlns="http://www.w3.org/2000/svg" viewBox="0 0 165.85 142.48">
  <defs>
    <style>
      .cls-1 {
        fill: #febd37;
        font-family: ArticulatCF-DemiBold, 'Articulat CF';
        font-size: 21px;
        font-weight: 300;
      }
    </style>
  </defs>
  <text class="cls-1" transform="translate(82.52 17.05) rotate(6.64)"><tspan x="0" y="0">S</tspan></text>
  <text class="cls-1" transform="translate(95.13 18.45) rotate(19.91)"><tspan x="0" y="0">P</tspan></text>
  <text class="cls-1" transform="translate(106.66 22.61) rotate(32.32)"><tspan x="0" y="0">E</tspan></text>
  <text class="cls-1" transform="translate(116.08 28.5) rotate(44.06)"><tspan x="0" y="0">E</tspan></text>
  <text class="cls-1" transform="translate(124.17 36.01) rotate(56.99)"><tspan x="0" y="0">D</tspan></text>
  <text class="cls-1" transform="translate(131.31 47.62) rotate(66.53)"><tspan x="0" y="0"> </tspan></text>
  <text class="cls-1" transform="translate(133.27 51.54) rotate(74.41)"><tspan x="0" y="0">*</tspan></text>
  <text class="cls-1" transform="translate(135.88 61.54) rotate(82.26)"><tspan x="0" y="0"> </tspan></text>
  <text class="cls-1" transform="translate(136.79 65.78) rotate(90.93)"><tspan x="0" y="0">F</tspan></text>
  <text class="cls-1" transform="translate(137.11 74.85) rotate(101.74)"><tspan x="0" y="0">A</tspan></text>
  <text class="cls-1" transform="translate(134.33 88.45) rotate(115.68)"><tspan x="0" y="0">S</tspan></text>
  <text class="cls-1" transform="translate(129.16 99.41) rotate(128.01)"><tspan x="0" y="0">T</tspan></text>
  <text class="cls-1" transform="translate(121.93 108.72) rotate(140.08)"><tspan x="0" y="0">E</tspan></text>
  <text class="cls-1" transform="translate(113.56 115.93) rotate(152.49)"><tspan x="0" y="0">R</tspan></text>
  <text class="cls-1" transform="translate(102.27 121.49) rotate(161.53)"><tspan x="0" y="0"> </tspan></text>
  <text class="cls-1" transform="translate(98.2 123.1) rotate(169.4)"><tspan x="0" y="0">*</tspan></text>
  <text class="cls-1" transform="translate(88.02 124.83) rotate(177.19)"><tspan x="0" y="0"> </tspan></text>
  <text class="cls-1" transform="translate(83.72 125.42) rotate(-173.77)"><tspan x="0" y="0">S</tspan></text>
  <text class="cls-1" transform="translate(71.11 124.11) rotate(-160.51)"><tspan x="0" y="0">P</tspan></text>
  <text class="cls-1" transform="translate(59.52 120.03) rotate(-148.07)"><tspan x="0" y="0">E</tspan></text>
  <text class="cls-1" transform="translate(50.09 114.23) rotate(-136.37)"><tspan x="0" y="0">E</tspan></text>
  <text class="cls-1" transform="translate(41.93 106.76) rotate(-123.42)"><tspan x="0" y="0">D</tspan></text>
  <text class="cls-1" transform="translate(34.71 95.2) rotate(-113.89)"><tspan x="0" y="0"> </tspan></text>
  <text class="cls-1" transform="translate(32.72 91.29) rotate(-105.99)"><tspan x="0" y="0">*</tspan></text>
  <text class="cls-1" transform="translate(30.04 81.32) rotate(-98.15)"><tspan x="0" y="0"> </tspan></text>
  <text class="cls-1" transform="translate(29.24 77.05) rotate(-90.93)"><tspan x="0" y="0">F</tspan></text>
  <text class="cls-1" transform="translate(28.72 68.01) rotate(-78.66)"><tspan x="0" y="0">A</tspan></text>
  <text class="cls-1" transform="translate(31.4 54.38) rotate(-64.71)"><tspan x="0" y="0">S</tspan></text>
  <text class="cls-1" transform="translate(36.49 43.4) rotate(-52.39)"><tspan x="0" y="0">T</tspan></text>
  <text class="cls-1" transform="translate(43.64 34.05) rotate(-40.34)"><tspan x="0" y="0">E</tspan></text>
  <text class="cls-1" transform="translate(51.99 26.76) rotate(-27.9)"><tspan x="0" y="0">R</tspan></text>
  <text class="cls-1" transform="translate(63.24 21.13) rotate(-18.87)"><tspan x="0" y="0"> </tspan></text>
  <text class="cls-1" transform="translate(67.28 19.49) rotate(-11)"><tspan x="0" y="0">*</tspan></text>
  <text class="cls-1" transform="translate(77.47 17.69) rotate(-3.2)"><tspan x="0" y="0"> </tspan></text>
</svg>